G04 #@! TF.FileFunction,Legend,Top*
%FSLAX46Y46*%
G04 Gerber Fmt 4.6, Leading zero omitted, Abs format (unit mm)*
G04 Created by KiCad (PCBNEW (2015-02-03 BZR 5404)-product) date 9/2/2015 4:33:54 PM*
%MOMM*%
G01*
G04 APERTURE LIST*
%ADD10C,0.100000*%
%ADD11C,0.150000*%
%ADD12C,0.254000*%
%ADD13C,0.200000*%
%ADD14C,0.076200*%
%ADD15C,0.160000*%
%ADD16C,0.203200*%
%ADD17C,0.152400*%
%ADD18C,0.304800*%
%ADD19C,0.190500*%
G04 APERTURE END LIST*
D10*
D11*
X38192000Y-83279500D02*
X38192000Y-83979500D01*
X36992000Y-83979500D02*
X36992000Y-83279500D01*
X36668000Y-83279500D02*
X36668000Y-83979500D01*
X35468000Y-83979500D02*
X35468000Y-83279500D01*
X38516000Y-95155500D02*
X38516000Y-94455500D01*
X39716000Y-94455500D02*
X39716000Y-95155500D01*
X39917000Y-76462000D02*
X39917000Y-77462000D01*
X41617000Y-77462000D02*
X41617000Y-76462000D01*
X36668000Y-94201500D02*
X36668000Y-94901500D01*
X35468000Y-94901500D02*
X35468000Y-94201500D01*
X39593000Y-98072500D02*
X38893000Y-98072500D01*
X38893000Y-96872500D02*
X39593000Y-96872500D01*
X38198500Y-76994500D02*
X38198500Y-76294500D01*
X39398500Y-76294500D02*
X39398500Y-76994500D01*
X37182500Y-80296500D02*
X37182500Y-79596500D01*
X38382500Y-79596500D02*
X38382500Y-80296500D01*
X41240000Y-94455500D02*
X41240000Y-95155500D01*
X40040000Y-95155500D02*
X40040000Y-94455500D01*
X36414000Y-76294500D02*
X36414000Y-76994500D01*
X35214000Y-76994500D02*
X35214000Y-76294500D01*
X44927000Y-94580000D02*
X44227000Y-94580000D01*
X44227000Y-93380000D02*
X44927000Y-93380000D01*
X46959000Y-92865500D02*
X46259000Y-92865500D01*
X46259000Y-91665500D02*
X46959000Y-91665500D01*
X47569500Y-81749000D02*
X48569500Y-81749000D01*
X48569500Y-80049000D02*
X47569500Y-80049000D01*
X45812000Y-79279000D02*
X45812000Y-79979000D01*
X44612000Y-79979000D02*
X44612000Y-79279000D01*
X44358000Y-89059500D02*
X44358000Y-88359500D01*
X45558000Y-88359500D02*
X45558000Y-89059500D01*
X42330000Y-88590500D02*
X42330000Y-89590500D01*
X44030000Y-89590500D02*
X44030000Y-88590500D01*
X41240000Y-83279500D02*
X41240000Y-83979500D01*
X40040000Y-83979500D02*
X40040000Y-83279500D01*
X44288000Y-79279000D02*
X44288000Y-79979000D01*
X43088000Y-79979000D02*
X43088000Y-79279000D01*
X35402000Y-60544000D02*
X34702000Y-60544000D01*
X34702000Y-59344000D02*
X35402000Y-59344000D01*
X39716000Y-83279500D02*
X39716000Y-83979500D01*
X38516000Y-83979500D02*
X38516000Y-83279500D01*
X36992000Y-94901500D02*
X36992000Y-94201500D01*
X38192000Y-94201500D02*
X38192000Y-94901500D01*
X46140000Y-77605000D02*
X46140000Y-78605000D01*
X47840000Y-78605000D02*
X47840000Y-77605000D01*
X48235500Y-77605000D02*
X48235500Y-78605000D01*
X49935500Y-78605000D02*
X49935500Y-77605000D01*
X52371500Y-70158500D02*
X50371500Y-70158500D01*
X50371500Y-72208500D02*
X52371500Y-72208500D01*
X50919000Y-87351500D02*
X49919000Y-87351500D01*
X49919000Y-89051500D02*
X50919000Y-89051500D01*
X53999500Y-87622000D02*
X53999500Y-86622000D01*
X52299500Y-86622000D02*
X52299500Y-87622000D01*
X53775500Y-78311500D02*
X53775500Y-80311500D01*
X55825500Y-80311500D02*
X55825500Y-78311500D01*
X48669500Y-76059000D02*
X47469500Y-76059000D01*
X47469500Y-74309000D02*
X48669500Y-74309000D01*
X51019000Y-86917500D02*
X49819000Y-86917500D01*
X49819000Y-85167500D02*
X51019000Y-85167500D01*
D12*
X61055000Y-111505000D02*
X31655000Y-111505000D01*
X31655000Y-111505000D02*
X31655000Y-102005000D01*
X31655000Y-102005000D02*
X61055000Y-102005000D01*
X61055000Y-102005000D02*
X61055000Y-111505000D01*
D11*
X79375000Y-102235000D02*
X79375000Y-43815000D01*
X74295000Y-102235000D02*
X74295000Y-46355000D01*
X79375000Y-102235000D02*
X74295000Y-102235000D01*
X79375000Y-43815000D02*
X76835000Y-43815000D01*
X74295000Y-43815000D02*
X74295000Y-46355000D01*
X76835000Y-43815000D02*
X76835000Y-46355000D01*
X76835000Y-46355000D02*
X74295000Y-46355000D01*
X74295000Y-43815000D02*
X76835000Y-43815000D01*
X31115000Y-102235000D02*
X31115000Y-43815000D01*
X26035000Y-102235000D02*
X26035000Y-46355000D01*
X31115000Y-102235000D02*
X26035000Y-102235000D01*
X31115000Y-43815000D02*
X28575000Y-43815000D01*
X26035000Y-43815000D02*
X26035000Y-46355000D01*
X28575000Y-43815000D02*
X28575000Y-46355000D01*
X28575000Y-46355000D02*
X26035000Y-46355000D01*
X26035000Y-43815000D02*
X28575000Y-43815000D01*
X32258000Y-41402000D02*
X32258000Y-43942000D01*
X32258000Y-43942000D02*
X34798000Y-43942000D01*
X34798000Y-43942000D02*
X34798000Y-41402000D01*
X34798000Y-41402000D02*
X32258000Y-41402000D01*
X32258000Y-41402000D02*
X32258000Y-38862000D01*
X32258000Y-38862000D02*
X37338000Y-38862000D01*
X37338000Y-38862000D02*
X37338000Y-43942000D01*
X37338000Y-43942000D02*
X34798000Y-43942000D01*
X40108500Y-79637000D02*
X40108500Y-80637000D01*
X38758500Y-80637000D02*
X38758500Y-79637000D01*
X37378000Y-97734500D02*
X37378000Y-98734500D01*
X36028000Y-98734500D02*
X36028000Y-97734500D01*
X34330000Y-78176500D02*
X34330000Y-79176500D01*
X32980000Y-79176500D02*
X32980000Y-78176500D01*
X40553000Y-99131500D02*
X40553000Y-100131500D01*
X39203000Y-100131500D02*
X39203000Y-99131500D01*
X43220000Y-94178500D02*
X43220000Y-95178500D01*
X41870000Y-95178500D02*
X41870000Y-94178500D01*
X43315000Y-91590500D02*
X44315000Y-91590500D01*
X44315000Y-92940500D02*
X43315000Y-92940500D01*
X32520000Y-82840200D02*
X33520000Y-82840200D01*
X33520000Y-84190200D02*
X32520000Y-84190200D01*
X33742000Y-95115000D02*
X33742000Y-94115000D01*
X35092000Y-94115000D02*
X35092000Y-95115000D01*
X32154500Y-61015500D02*
X32154500Y-60015500D01*
X33504500Y-60015500D02*
X33504500Y-61015500D01*
X35107500Y-55475500D02*
X34107500Y-55475500D01*
X34107500Y-54125500D02*
X35107500Y-54125500D01*
X55548500Y-72679000D02*
X55548500Y-73879000D01*
X53798500Y-73879000D02*
X53798500Y-72679000D01*
X39537000Y-40902000D02*
X39537000Y-41902000D01*
X38187000Y-41902000D02*
X38187000Y-40902000D01*
X57305500Y-84377500D02*
X56105500Y-84377500D01*
X56105500Y-82627500D02*
X57305500Y-82627500D01*
X51030500Y-83002500D02*
X51030500Y-84002500D01*
X49680500Y-84002500D02*
X49680500Y-83002500D01*
X52951000Y-81447000D02*
X51951000Y-81447000D01*
X51951000Y-80097000D02*
X52951000Y-80097000D01*
X36814000Y-80192500D02*
X34814000Y-80192500D01*
X34814000Y-80192500D02*
X34814000Y-79192500D01*
X34814000Y-79192500D02*
X36814000Y-79192500D01*
X36814000Y-79192500D02*
X36814000Y-80192500D01*
D13*
X40809500Y-74821000D02*
X35009500Y-74821000D01*
X35009500Y-74821000D02*
X35009500Y-70721000D01*
X35009500Y-70721000D02*
X40809500Y-70721000D01*
X40809500Y-70721000D02*
X40809500Y-74821000D01*
D11*
X41350921Y-70871000D02*
G75*
G03X41350921Y-70871000I-141421J0D01*
G01*
D13*
X42000000Y-90890500D02*
X34200000Y-90890500D01*
X34200000Y-90890500D02*
X34200000Y-87290500D01*
X34200000Y-87290500D02*
X42000000Y-87290500D01*
X42000000Y-87290500D02*
X42000000Y-90890500D01*
D10*
X42341421Y-86890500D02*
G75*
G03X42341421Y-86890500I-141421J0D01*
G01*
D11*
X45148500Y-82550000D02*
X46418500Y-83756500D01*
X46418500Y-82550000D02*
X43243500Y-82550000D01*
X43243500Y-82550000D02*
X43243500Y-85725000D01*
X43243500Y-85725000D02*
X46418500Y-85725000D01*
X46418500Y-85725000D02*
X46418500Y-82550000D01*
D13*
X33690000Y-58804000D02*
X33690000Y-56004000D01*
X33690000Y-56004000D02*
X34890000Y-56004000D01*
X34890000Y-56004000D02*
X34890000Y-58804000D01*
X34890000Y-58804000D02*
X33690000Y-58804000D01*
D10*
X35431421Y-59004000D02*
G75*
G03X35431421Y-59004000I-141421J0D01*
G01*
D11*
X50800000Y-72707500D02*
X52578000Y-72707500D01*
X52578000Y-72707500D02*
X52578000Y-75755500D01*
X52578000Y-75755500D02*
X50800000Y-75755500D01*
X50800000Y-75755500D02*
X50800000Y-72707500D01*
X52324000Y-81978500D02*
X54102000Y-81978500D01*
X54102000Y-81978500D02*
X54102000Y-85026500D01*
X54102000Y-85026500D02*
X52324000Y-85026500D01*
X52324000Y-85026500D02*
X52324000Y-81978500D01*
X65379600Y-92202000D02*
X60299600Y-92202000D01*
X60299600Y-92202000D02*
X60299600Y-94742000D01*
X60299600Y-94742000D02*
X65379600Y-94742000D01*
X68199600Y-95022000D02*
X66649600Y-95022000D01*
X65379600Y-94742000D02*
X65379600Y-92202000D01*
X66649600Y-91922000D02*
X68199600Y-91922000D01*
X68199600Y-91922000D02*
X68199600Y-95022000D01*
X60604400Y-69748400D02*
X60604400Y-67208400D01*
X60324400Y-72568400D02*
X60324400Y-71018400D01*
X60604400Y-69748400D02*
X63144400Y-69748400D01*
X63424400Y-71018400D02*
X63424400Y-72568400D01*
X63424400Y-72568400D02*
X60324400Y-72568400D01*
X63144400Y-69748400D02*
X63144400Y-67208400D01*
X63144400Y-67208400D02*
X60604400Y-67208400D01*
D14*
X32865786Y-82020833D02*
X32896024Y-82051071D01*
X32926262Y-82141786D01*
X32926262Y-82202262D01*
X32896024Y-82292976D01*
X32835548Y-82353452D01*
X32775071Y-82383691D01*
X32654119Y-82413929D01*
X32563405Y-82413929D01*
X32442452Y-82383691D01*
X32381976Y-82353452D01*
X32321500Y-82292976D01*
X32291262Y-82202262D01*
X32291262Y-82141786D01*
X32321500Y-82051071D01*
X32351738Y-82020833D01*
X32926262Y-81416071D02*
X32926262Y-81778929D01*
X32926262Y-81597500D02*
X32291262Y-81597500D01*
X32381976Y-81657976D01*
X32442452Y-81718452D01*
X32472690Y-81778929D01*
X31976786Y-82020833D02*
X32007024Y-82051071D01*
X32037262Y-82141786D01*
X32037262Y-82202262D01*
X32007024Y-82292976D01*
X31946548Y-82353452D01*
X31886071Y-82383691D01*
X31765119Y-82413929D01*
X31674405Y-82413929D01*
X31553452Y-82383691D01*
X31492976Y-82353452D01*
X31432500Y-82292976D01*
X31402262Y-82202262D01*
X31402262Y-82141786D01*
X31432500Y-82051071D01*
X31462738Y-82020833D01*
X31402262Y-81809167D02*
X31402262Y-81416071D01*
X31644167Y-81627738D01*
X31644167Y-81537024D01*
X31674405Y-81476548D01*
X31704643Y-81446310D01*
X31765119Y-81416071D01*
X31916310Y-81416071D01*
X31976786Y-81446310D01*
X32007024Y-81476548D01*
X32037262Y-81537024D01*
X32037262Y-81718452D01*
X32007024Y-81778929D01*
X31976786Y-81809167D01*
D11*
X49252143Y-97702666D02*
X49299762Y-97750285D01*
X49347381Y-97893142D01*
X49347381Y-97988380D01*
X49299762Y-98131238D01*
X49204524Y-98226476D01*
X49109286Y-98274095D01*
X48918810Y-98321714D01*
X48775952Y-98321714D01*
X48585476Y-98274095D01*
X48490238Y-98226476D01*
X48395000Y-98131238D01*
X48347381Y-97988380D01*
X48347381Y-97893142D01*
X48395000Y-97750285D01*
X48442619Y-97702666D01*
X48347381Y-96845523D02*
X48347381Y-97036000D01*
X48395000Y-97131238D01*
X48442619Y-97178857D01*
X48585476Y-97274095D01*
X48775952Y-97321714D01*
X49156905Y-97321714D01*
X49252143Y-97274095D01*
X49299762Y-97226476D01*
X49347381Y-97131238D01*
X49347381Y-96940761D01*
X49299762Y-96845523D01*
X49252143Y-96797904D01*
X49156905Y-96750285D01*
X48918810Y-96750285D01*
X48823571Y-96797904D01*
X48775952Y-96845523D01*
X48728333Y-96940761D01*
X48728333Y-97131238D01*
X48775952Y-97226476D01*
X48823571Y-97274095D01*
X48918810Y-97321714D01*
D14*
X42644786Y-75924833D02*
X42675024Y-75955071D01*
X42705262Y-76045786D01*
X42705262Y-76106262D01*
X42675024Y-76196976D01*
X42614548Y-76257452D01*
X42554071Y-76287691D01*
X42433119Y-76317929D01*
X42342405Y-76317929D01*
X42221452Y-76287691D01*
X42160976Y-76257452D01*
X42100500Y-76196976D01*
X42070262Y-76106262D01*
X42070262Y-76045786D01*
X42100500Y-75955071D01*
X42130738Y-75924833D01*
X42070262Y-75713167D02*
X42070262Y-75289833D01*
X42705262Y-75561976D01*
D11*
X46458143Y-97702666D02*
X46505762Y-97750285D01*
X46553381Y-97893142D01*
X46553381Y-97988380D01*
X46505762Y-98131238D01*
X46410524Y-98226476D01*
X46315286Y-98274095D01*
X46124810Y-98321714D01*
X45981952Y-98321714D01*
X45791476Y-98274095D01*
X45696238Y-98226476D01*
X45601000Y-98131238D01*
X45553381Y-97988380D01*
X45553381Y-97893142D01*
X45601000Y-97750285D01*
X45648619Y-97702666D01*
X45981952Y-97131238D02*
X45934333Y-97226476D01*
X45886714Y-97274095D01*
X45791476Y-97321714D01*
X45743857Y-97321714D01*
X45648619Y-97274095D01*
X45601000Y-97226476D01*
X45553381Y-97131238D01*
X45553381Y-96940761D01*
X45601000Y-96845523D01*
X45648619Y-96797904D01*
X45743857Y-96750285D01*
X45791476Y-96750285D01*
X45886714Y-96797904D01*
X45934333Y-96845523D01*
X45981952Y-96940761D01*
X45981952Y-97131238D01*
X46029571Y-97226476D01*
X46077190Y-97274095D01*
X46172429Y-97321714D01*
X46362905Y-97321714D01*
X46458143Y-97274095D01*
X46505762Y-97226476D01*
X46553381Y-97131238D01*
X46553381Y-96940761D01*
X46505762Y-96845523D01*
X46458143Y-96797904D01*
X46362905Y-96750285D01*
X46172429Y-96750285D01*
X46077190Y-96797904D01*
X46029571Y-96845523D01*
X45981952Y-96940761D01*
X41616334Y-97766143D02*
X41568715Y-97813762D01*
X41425858Y-97861381D01*
X41330620Y-97861381D01*
X41187762Y-97813762D01*
X41092524Y-97718524D01*
X41044905Y-97623286D01*
X40997286Y-97432810D01*
X40997286Y-97289952D01*
X41044905Y-97099476D01*
X41092524Y-97004238D01*
X41187762Y-96909000D01*
X41330620Y-96861381D01*
X41425858Y-96861381D01*
X41568715Y-96909000D01*
X41616334Y-96956619D01*
X42092524Y-97861381D02*
X42283000Y-97861381D01*
X42378239Y-97813762D01*
X42425858Y-97766143D01*
X42521096Y-97623286D01*
X42568715Y-97432810D01*
X42568715Y-97051857D01*
X42521096Y-96956619D01*
X42473477Y-96909000D01*
X42378239Y-96861381D01*
X42187762Y-96861381D01*
X42092524Y-96909000D01*
X42044905Y-96956619D01*
X41997286Y-97051857D01*
X41997286Y-97289952D01*
X42044905Y-97385190D01*
X42092524Y-97432810D01*
X42187762Y-97480429D01*
X42378239Y-97480429D01*
X42473477Y-97432810D01*
X42521096Y-97385190D01*
X42568715Y-97289952D01*
D14*
X37818786Y-76481214D02*
X37849024Y-76511452D01*
X37879262Y-76602167D01*
X37879262Y-76662643D01*
X37849024Y-76753357D01*
X37788548Y-76813833D01*
X37728071Y-76844072D01*
X37607119Y-76874310D01*
X37516405Y-76874310D01*
X37395452Y-76844072D01*
X37334976Y-76813833D01*
X37274500Y-76753357D01*
X37244262Y-76662643D01*
X37244262Y-76602167D01*
X37274500Y-76511452D01*
X37304738Y-76481214D01*
X37879262Y-75876452D02*
X37879262Y-76239310D01*
X37879262Y-76057881D02*
X37244262Y-76057881D01*
X37334976Y-76118357D01*
X37395452Y-76178833D01*
X37425690Y-76239310D01*
X37244262Y-75483357D02*
X37244262Y-75422881D01*
X37274500Y-75362405D01*
X37304738Y-75332167D01*
X37365214Y-75301929D01*
X37486167Y-75271690D01*
X37637357Y-75271690D01*
X37758310Y-75301929D01*
X37818786Y-75332167D01*
X37849024Y-75362405D01*
X37879262Y-75422881D01*
X37879262Y-75483357D01*
X37849024Y-75543833D01*
X37818786Y-75574071D01*
X37758310Y-75604310D01*
X37637357Y-75634548D01*
X37486167Y-75634548D01*
X37365214Y-75604310D01*
X37304738Y-75574071D01*
X37274500Y-75543833D01*
X37244262Y-75483357D01*
D11*
X41251143Y-80779857D02*
X41298762Y-80827476D01*
X41346381Y-80970333D01*
X41346381Y-81065571D01*
X41298762Y-81208429D01*
X41203524Y-81303667D01*
X41108286Y-81351286D01*
X40917810Y-81398905D01*
X40774952Y-81398905D01*
X40584476Y-81351286D01*
X40489238Y-81303667D01*
X40394000Y-81208429D01*
X40346381Y-81065571D01*
X40346381Y-80970333D01*
X40394000Y-80827476D01*
X40441619Y-80779857D01*
X41346381Y-79827476D02*
X41346381Y-80398905D01*
X41346381Y-80113191D02*
X40346381Y-80113191D01*
X40489238Y-80208429D01*
X40584476Y-80303667D01*
X40632095Y-80398905D01*
X41346381Y-78875095D02*
X41346381Y-79446524D01*
X41346381Y-79160810D02*
X40346381Y-79160810D01*
X40489238Y-79256048D01*
X40584476Y-79351286D01*
X40632095Y-79446524D01*
X50649143Y-97797857D02*
X50696762Y-97845476D01*
X50744381Y-97988333D01*
X50744381Y-98083571D01*
X50696762Y-98226429D01*
X50601524Y-98321667D01*
X50506286Y-98369286D01*
X50315810Y-98416905D01*
X50172952Y-98416905D01*
X49982476Y-98369286D01*
X49887238Y-98321667D01*
X49792000Y-98226429D01*
X49744381Y-98083571D01*
X49744381Y-97988333D01*
X49792000Y-97845476D01*
X49839619Y-97797857D01*
X50744381Y-96845476D02*
X50744381Y-97416905D01*
X50744381Y-97131191D02*
X49744381Y-97131191D01*
X49887238Y-97226429D01*
X49982476Y-97321667D01*
X50030095Y-97416905D01*
X49839619Y-96464524D02*
X49792000Y-96416905D01*
X49744381Y-96321667D01*
X49744381Y-96083571D01*
X49792000Y-95988333D01*
X49839619Y-95940714D01*
X49934857Y-95893095D01*
X50030095Y-95893095D01*
X50172952Y-95940714D01*
X50744381Y-96512143D01*
X50744381Y-95893095D01*
D14*
X34770786Y-76354214D02*
X34801024Y-76384452D01*
X34831262Y-76475167D01*
X34831262Y-76535643D01*
X34801024Y-76626357D01*
X34740548Y-76686833D01*
X34680071Y-76717072D01*
X34559119Y-76747310D01*
X34468405Y-76747310D01*
X34347452Y-76717072D01*
X34286976Y-76686833D01*
X34226500Y-76626357D01*
X34196262Y-76535643D01*
X34196262Y-76475167D01*
X34226500Y-76384452D01*
X34256738Y-76354214D01*
X34831262Y-75749452D02*
X34831262Y-76112310D01*
X34831262Y-75930881D02*
X34196262Y-75930881D01*
X34286976Y-75991357D01*
X34347452Y-76051833D01*
X34377690Y-76112310D01*
X34196262Y-75537786D02*
X34196262Y-75144690D01*
X34438167Y-75356357D01*
X34438167Y-75265643D01*
X34468405Y-75205167D01*
X34498643Y-75174929D01*
X34559119Y-75144690D01*
X34710310Y-75144690D01*
X34770786Y-75174929D01*
X34801024Y-75205167D01*
X34831262Y-75265643D01*
X34831262Y-75447071D01*
X34801024Y-75507548D01*
X34770786Y-75537786D01*
D11*
X46982143Y-94591143D02*
X46934524Y-94638762D01*
X46791667Y-94686381D01*
X46696429Y-94686381D01*
X46553571Y-94638762D01*
X46458333Y-94543524D01*
X46410714Y-94448286D01*
X46363095Y-94257810D01*
X46363095Y-94114952D01*
X46410714Y-93924476D01*
X46458333Y-93829238D01*
X46553571Y-93734000D01*
X46696429Y-93686381D01*
X46791667Y-93686381D01*
X46934524Y-93734000D01*
X46982143Y-93781619D01*
X47934524Y-94686381D02*
X47363095Y-94686381D01*
X47648809Y-94686381D02*
X47648809Y-93686381D01*
X47553571Y-93829238D01*
X47458333Y-93924476D01*
X47363095Y-93972095D01*
X48791667Y-94019714D02*
X48791667Y-94686381D01*
X48553571Y-93638762D02*
X48315476Y-94353048D01*
X48934524Y-94353048D01*
X47236143Y-91162143D02*
X47188524Y-91209762D01*
X47045667Y-91257381D01*
X46950429Y-91257381D01*
X46807571Y-91209762D01*
X46712333Y-91114524D01*
X46664714Y-91019286D01*
X46617095Y-90828810D01*
X46617095Y-90685952D01*
X46664714Y-90495476D01*
X46712333Y-90400238D01*
X46807571Y-90305000D01*
X46950429Y-90257381D01*
X47045667Y-90257381D01*
X47188524Y-90305000D01*
X47236143Y-90352619D01*
X48188524Y-91257381D02*
X47617095Y-91257381D01*
X47902809Y-91257381D02*
X47902809Y-90257381D01*
X47807571Y-90400238D01*
X47712333Y-90495476D01*
X47617095Y-90543095D01*
X49093286Y-90257381D02*
X48617095Y-90257381D01*
X48569476Y-90733571D01*
X48617095Y-90685952D01*
X48712333Y-90638333D01*
X48950429Y-90638333D01*
X49045667Y-90685952D01*
X49093286Y-90733571D01*
X49140905Y-90828810D01*
X49140905Y-91066905D01*
X49093286Y-91162143D01*
X49045667Y-91209762D01*
X48950429Y-91257381D01*
X48712333Y-91257381D01*
X48617095Y-91209762D01*
X48569476Y-91162143D01*
D14*
X47597786Y-82776786D02*
X47567548Y-82807024D01*
X47476833Y-82837262D01*
X47416357Y-82837262D01*
X47325643Y-82807024D01*
X47265167Y-82746548D01*
X47234928Y-82686071D01*
X47204690Y-82565119D01*
X47204690Y-82474405D01*
X47234928Y-82353452D01*
X47265167Y-82292976D01*
X47325643Y-82232500D01*
X47416357Y-82202262D01*
X47476833Y-82202262D01*
X47567548Y-82232500D01*
X47597786Y-82262738D01*
X48202548Y-82837262D02*
X47839690Y-82837262D01*
X48021119Y-82837262D02*
X48021119Y-82202262D01*
X47960643Y-82292976D01*
X47900167Y-82353452D01*
X47839690Y-82383690D01*
X48746833Y-82202262D02*
X48625881Y-82202262D01*
X48565405Y-82232500D01*
X48535167Y-82262738D01*
X48474690Y-82353452D01*
X48444452Y-82474405D01*
X48444452Y-82716310D01*
X48474690Y-82776786D01*
X48504929Y-82807024D01*
X48565405Y-82837262D01*
X48686357Y-82837262D01*
X48746833Y-82807024D01*
X48777071Y-82776786D01*
X48807310Y-82716310D01*
X48807310Y-82565119D01*
X48777071Y-82504643D01*
X48746833Y-82474405D01*
X48686357Y-82444167D01*
X48565405Y-82444167D01*
X48504929Y-82474405D01*
X48474690Y-82504643D01*
X48444452Y-82565119D01*
X45438786Y-77624214D02*
X45469024Y-77654452D01*
X45499262Y-77745167D01*
X45499262Y-77805643D01*
X45469024Y-77896357D01*
X45408548Y-77956833D01*
X45348071Y-77987072D01*
X45227119Y-78017310D01*
X45136405Y-78017310D01*
X45015452Y-77987072D01*
X44954976Y-77956833D01*
X44894500Y-77896357D01*
X44864262Y-77805643D01*
X44864262Y-77745167D01*
X44894500Y-77654452D01*
X44924738Y-77624214D01*
X45499262Y-77019452D02*
X45499262Y-77382310D01*
X45499262Y-77200881D02*
X44864262Y-77200881D01*
X44954976Y-77261357D01*
X45015452Y-77321833D01*
X45045690Y-77382310D01*
X44864262Y-76807786D02*
X44864262Y-76384452D01*
X45499262Y-76656595D01*
D11*
X48109143Y-89288857D02*
X48156762Y-89336476D01*
X48204381Y-89479333D01*
X48204381Y-89574571D01*
X48156762Y-89717429D01*
X48061524Y-89812667D01*
X47966286Y-89860286D01*
X47775810Y-89907905D01*
X47632952Y-89907905D01*
X47442476Y-89860286D01*
X47347238Y-89812667D01*
X47252000Y-89717429D01*
X47204381Y-89574571D01*
X47204381Y-89479333D01*
X47252000Y-89336476D01*
X47299619Y-89288857D01*
X48204381Y-88336476D02*
X48204381Y-88907905D01*
X48204381Y-88622191D02*
X47204381Y-88622191D01*
X47347238Y-88717429D01*
X47442476Y-88812667D01*
X47490095Y-88907905D01*
X47632952Y-87765048D02*
X47585333Y-87860286D01*
X47537714Y-87907905D01*
X47442476Y-87955524D01*
X47394857Y-87955524D01*
X47299619Y-87907905D01*
X47252000Y-87860286D01*
X47204381Y-87765048D01*
X47204381Y-87574571D01*
X47252000Y-87479333D01*
X47299619Y-87431714D01*
X47394857Y-87384095D01*
X47442476Y-87384095D01*
X47537714Y-87431714D01*
X47585333Y-87479333D01*
X47632952Y-87574571D01*
X47632952Y-87765048D01*
X47680571Y-87860286D01*
X47728190Y-87907905D01*
X47823429Y-87955524D01*
X48013905Y-87955524D01*
X48109143Y-87907905D01*
X48156762Y-87860286D01*
X48204381Y-87765048D01*
X48204381Y-87574571D01*
X48156762Y-87479333D01*
X48109143Y-87431714D01*
X48013905Y-87384095D01*
X47823429Y-87384095D01*
X47728190Y-87431714D01*
X47680571Y-87479333D01*
X47632952Y-87574571D01*
X46839143Y-89288857D02*
X46886762Y-89336476D01*
X46934381Y-89479333D01*
X46934381Y-89574571D01*
X46886762Y-89717429D01*
X46791524Y-89812667D01*
X46696286Y-89860286D01*
X46505810Y-89907905D01*
X46362952Y-89907905D01*
X46172476Y-89860286D01*
X46077238Y-89812667D01*
X45982000Y-89717429D01*
X45934381Y-89574571D01*
X45934381Y-89479333D01*
X45982000Y-89336476D01*
X46029619Y-89288857D01*
X46934381Y-88336476D02*
X46934381Y-88907905D01*
X46934381Y-88622191D02*
X45934381Y-88622191D01*
X46077238Y-88717429D01*
X46172476Y-88812667D01*
X46220095Y-88907905D01*
X46934381Y-87860286D02*
X46934381Y-87669810D01*
X46886762Y-87574571D01*
X46839143Y-87526952D01*
X46696286Y-87431714D01*
X46505810Y-87384095D01*
X46124857Y-87384095D01*
X46029619Y-87431714D01*
X45982000Y-87479333D01*
X45934381Y-87574571D01*
X45934381Y-87765048D01*
X45982000Y-87860286D01*
X46029619Y-87907905D01*
X46124857Y-87955524D01*
X46362952Y-87955524D01*
X46458190Y-87907905D01*
X46505810Y-87860286D01*
X46553429Y-87765048D01*
X46553429Y-87574571D01*
X46505810Y-87479333D01*
X46458190Y-87431714D01*
X46362952Y-87384095D01*
D14*
X34643786Y-82069214D02*
X34674024Y-82099452D01*
X34704262Y-82190167D01*
X34704262Y-82250643D01*
X34674024Y-82341357D01*
X34613548Y-82401833D01*
X34553071Y-82432072D01*
X34432119Y-82462310D01*
X34341405Y-82462310D01*
X34220452Y-82432072D01*
X34159976Y-82401833D01*
X34099500Y-82341357D01*
X34069262Y-82250643D01*
X34069262Y-82190167D01*
X34099500Y-82099452D01*
X34129738Y-82069214D01*
X34129738Y-81827310D02*
X34099500Y-81797072D01*
X34069262Y-81736595D01*
X34069262Y-81585405D01*
X34099500Y-81524929D01*
X34129738Y-81494691D01*
X34190214Y-81464452D01*
X34250690Y-81464452D01*
X34341405Y-81494691D01*
X34704262Y-81857548D01*
X34704262Y-81464452D01*
X34069262Y-81071357D02*
X34069262Y-81010881D01*
X34099500Y-80950405D01*
X34129738Y-80920167D01*
X34190214Y-80889929D01*
X34311167Y-80859690D01*
X34462357Y-80859690D01*
X34583310Y-80889929D01*
X34643786Y-80920167D01*
X34674024Y-80950405D01*
X34704262Y-81010881D01*
X34704262Y-81071357D01*
X34674024Y-81131833D01*
X34643786Y-81162071D01*
X34583310Y-81192310D01*
X34462357Y-81222548D01*
X34311167Y-81222548D01*
X34190214Y-81192310D01*
X34129738Y-81162071D01*
X34099500Y-81131833D01*
X34069262Y-81071357D01*
X43914786Y-77624214D02*
X43945024Y-77654452D01*
X43975262Y-77745167D01*
X43975262Y-77805643D01*
X43945024Y-77896357D01*
X43884548Y-77956833D01*
X43824071Y-77987072D01*
X43703119Y-78017310D01*
X43612405Y-78017310D01*
X43491452Y-77987072D01*
X43430976Y-77956833D01*
X43370500Y-77896357D01*
X43340262Y-77805643D01*
X43340262Y-77745167D01*
X43370500Y-77654452D01*
X43400738Y-77624214D01*
X43400738Y-77382310D02*
X43370500Y-77352072D01*
X43340262Y-77291595D01*
X43340262Y-77140405D01*
X43370500Y-77079929D01*
X43400738Y-77049691D01*
X43461214Y-77019452D01*
X43521690Y-77019452D01*
X43612405Y-77049691D01*
X43975262Y-77412548D01*
X43975262Y-77019452D01*
X43400738Y-76777548D02*
X43370500Y-76747310D01*
X43340262Y-76686833D01*
X43340262Y-76535643D01*
X43370500Y-76475167D01*
X43400738Y-76444929D01*
X43461214Y-76414690D01*
X43521690Y-76414690D01*
X43612405Y-76444929D01*
X43975262Y-76807786D01*
X43975262Y-76414690D01*
D11*
X37457143Y-60301143D02*
X37409524Y-60348762D01*
X37266667Y-60396381D01*
X37171429Y-60396381D01*
X37028571Y-60348762D01*
X36933333Y-60253524D01*
X36885714Y-60158286D01*
X36838095Y-59967810D01*
X36838095Y-59824952D01*
X36885714Y-59634476D01*
X36933333Y-59539238D01*
X37028571Y-59444000D01*
X37171429Y-59396381D01*
X37266667Y-59396381D01*
X37409524Y-59444000D01*
X37457143Y-59491619D01*
X37838095Y-59491619D02*
X37885714Y-59444000D01*
X37980952Y-59396381D01*
X38219048Y-59396381D01*
X38314286Y-59444000D01*
X38361905Y-59491619D01*
X38409524Y-59586857D01*
X38409524Y-59682095D01*
X38361905Y-59824952D01*
X37790476Y-60396381D01*
X38409524Y-60396381D01*
X38742857Y-59396381D02*
X39361905Y-59396381D01*
X39028571Y-59777333D01*
X39171429Y-59777333D01*
X39266667Y-59824952D01*
X39314286Y-59872571D01*
X39361905Y-59967810D01*
X39361905Y-60205905D01*
X39314286Y-60301143D01*
X39266667Y-60348762D01*
X39171429Y-60396381D01*
X38885714Y-60396381D01*
X38790476Y-60348762D01*
X38742857Y-60301143D01*
D14*
X33754786Y-82069214D02*
X33785024Y-82099452D01*
X33815262Y-82190167D01*
X33815262Y-82250643D01*
X33785024Y-82341357D01*
X33724548Y-82401833D01*
X33664071Y-82432072D01*
X33543119Y-82462310D01*
X33452405Y-82462310D01*
X33331452Y-82432072D01*
X33270976Y-82401833D01*
X33210500Y-82341357D01*
X33180262Y-82250643D01*
X33180262Y-82190167D01*
X33210500Y-82099452D01*
X33240738Y-82069214D01*
X33240738Y-81827310D02*
X33210500Y-81797072D01*
X33180262Y-81736595D01*
X33180262Y-81585405D01*
X33210500Y-81524929D01*
X33240738Y-81494691D01*
X33301214Y-81464452D01*
X33361690Y-81464452D01*
X33452405Y-81494691D01*
X33815262Y-81857548D01*
X33815262Y-81464452D01*
X33391929Y-80920167D02*
X33815262Y-80920167D01*
X33150024Y-81071357D02*
X33603595Y-81222548D01*
X33603595Y-80829452D01*
D11*
X47855143Y-97797857D02*
X47902762Y-97845476D01*
X47950381Y-97988333D01*
X47950381Y-98083571D01*
X47902762Y-98226429D01*
X47807524Y-98321667D01*
X47712286Y-98369286D01*
X47521810Y-98416905D01*
X47378952Y-98416905D01*
X47188476Y-98369286D01*
X47093238Y-98321667D01*
X46998000Y-98226429D01*
X46950381Y-98083571D01*
X46950381Y-97988333D01*
X46998000Y-97845476D01*
X47045619Y-97797857D01*
X47045619Y-97416905D02*
X46998000Y-97369286D01*
X46950381Y-97274048D01*
X46950381Y-97035952D01*
X46998000Y-96940714D01*
X47045619Y-96893095D01*
X47140857Y-96845476D01*
X47236095Y-96845476D01*
X47378952Y-96893095D01*
X47950381Y-97464524D01*
X47950381Y-96845476D01*
X46950381Y-95988333D02*
X46950381Y-96178810D01*
X46998000Y-96274048D01*
X47045619Y-96321667D01*
X47188476Y-96416905D01*
X47378952Y-96464524D01*
X47759905Y-96464524D01*
X47855143Y-96416905D01*
X47902762Y-96369286D01*
X47950381Y-96274048D01*
X47950381Y-96083571D01*
X47902762Y-95988333D01*
X47855143Y-95940714D01*
X47759905Y-95893095D01*
X47521810Y-95893095D01*
X47426571Y-95940714D01*
X47378952Y-95988333D01*
X47331333Y-96083571D01*
X47331333Y-96274048D01*
X47378952Y-96369286D01*
X47426571Y-96416905D01*
X47521810Y-96464524D01*
D14*
X50899786Y-77624214D02*
X50930024Y-77654452D01*
X50960262Y-77745167D01*
X50960262Y-77805643D01*
X50930024Y-77896357D01*
X50869548Y-77956833D01*
X50809071Y-77987072D01*
X50688119Y-78017310D01*
X50597405Y-78017310D01*
X50476452Y-77987072D01*
X50415976Y-77956833D01*
X50355500Y-77896357D01*
X50325262Y-77805643D01*
X50325262Y-77745167D01*
X50355500Y-77654452D01*
X50385738Y-77624214D01*
X50325262Y-77412548D02*
X50325262Y-77019452D01*
X50567167Y-77231119D01*
X50567167Y-77140405D01*
X50597405Y-77079929D01*
X50627643Y-77049691D01*
X50688119Y-77019452D01*
X50839310Y-77019452D01*
X50899786Y-77049691D01*
X50930024Y-77079929D01*
X50960262Y-77140405D01*
X50960262Y-77321833D01*
X50930024Y-77382310D01*
X50899786Y-77412548D01*
X50325262Y-76444929D02*
X50325262Y-76747310D01*
X50627643Y-76777548D01*
X50597405Y-76747310D01*
X50567167Y-76686833D01*
X50567167Y-76535643D01*
X50597405Y-76475167D01*
X50627643Y-76444929D01*
X50688119Y-76414690D01*
X50839310Y-76414690D01*
X50899786Y-76444929D01*
X50930024Y-76475167D01*
X50960262Y-76535643D01*
X50960262Y-76686833D01*
X50930024Y-76747310D01*
X50899786Y-76777548D01*
X51788786Y-77624214D02*
X51819024Y-77654452D01*
X51849262Y-77745167D01*
X51849262Y-77805643D01*
X51819024Y-77896357D01*
X51758548Y-77956833D01*
X51698071Y-77987072D01*
X51577119Y-78017310D01*
X51486405Y-78017310D01*
X51365452Y-77987072D01*
X51304976Y-77956833D01*
X51244500Y-77896357D01*
X51214262Y-77805643D01*
X51214262Y-77745167D01*
X51244500Y-77654452D01*
X51274738Y-77624214D01*
X51214262Y-77412548D02*
X51214262Y-77019452D01*
X51456167Y-77231119D01*
X51456167Y-77140405D01*
X51486405Y-77079929D01*
X51516643Y-77049691D01*
X51577119Y-77019452D01*
X51728310Y-77019452D01*
X51788786Y-77049691D01*
X51819024Y-77079929D01*
X51849262Y-77140405D01*
X51849262Y-77321833D01*
X51819024Y-77382310D01*
X51788786Y-77412548D01*
X51214262Y-76475167D02*
X51214262Y-76596119D01*
X51244500Y-76656595D01*
X51274738Y-76686833D01*
X51365452Y-76747310D01*
X51486405Y-76777548D01*
X51728310Y-76777548D01*
X51788786Y-76747310D01*
X51819024Y-76717071D01*
X51849262Y-76656595D01*
X51849262Y-76535643D01*
X51819024Y-76475167D01*
X51788786Y-76444929D01*
X51728310Y-76414690D01*
X51577119Y-76414690D01*
X51516643Y-76444929D01*
X51486405Y-76475167D01*
X51456167Y-76535643D01*
X51456167Y-76656595D01*
X51486405Y-76717071D01*
X51516643Y-76747310D01*
X51577119Y-76777548D01*
D11*
X50792143Y-69572143D02*
X50744524Y-69619762D01*
X50601667Y-69667381D01*
X50506429Y-69667381D01*
X50363571Y-69619762D01*
X50268333Y-69524524D01*
X50220714Y-69429286D01*
X50173095Y-69238810D01*
X50173095Y-69095952D01*
X50220714Y-68905476D01*
X50268333Y-68810238D01*
X50363571Y-68715000D01*
X50506429Y-68667381D01*
X50601667Y-68667381D01*
X50744524Y-68715000D01*
X50792143Y-68762619D01*
X51125476Y-68667381D02*
X51744524Y-68667381D01*
X51411190Y-69048333D01*
X51554048Y-69048333D01*
X51649286Y-69095952D01*
X51696905Y-69143571D01*
X51744524Y-69238810D01*
X51744524Y-69476905D01*
X51696905Y-69572143D01*
X51649286Y-69619762D01*
X51554048Y-69667381D01*
X51268333Y-69667381D01*
X51173095Y-69619762D01*
X51125476Y-69572143D01*
X52077857Y-68667381D02*
X52744524Y-68667381D01*
X52315952Y-69667381D01*
X51046143Y-91670143D02*
X50998524Y-91717762D01*
X50855667Y-91765381D01*
X50760429Y-91765381D01*
X50617571Y-91717762D01*
X50522333Y-91622524D01*
X50474714Y-91527286D01*
X50427095Y-91336810D01*
X50427095Y-91193952D01*
X50474714Y-91003476D01*
X50522333Y-90908238D01*
X50617571Y-90813000D01*
X50760429Y-90765381D01*
X50855667Y-90765381D01*
X50998524Y-90813000D01*
X51046143Y-90860619D01*
X51903286Y-91098714D02*
X51903286Y-91765381D01*
X51665190Y-90717762D02*
X51427095Y-91432048D01*
X52046143Y-91432048D01*
X52903286Y-90765381D02*
X52427095Y-90765381D01*
X52379476Y-91241571D01*
X52427095Y-91193952D01*
X52522333Y-91146333D01*
X52760429Y-91146333D01*
X52855667Y-91193952D01*
X52903286Y-91241571D01*
X52950905Y-91336810D01*
X52950905Y-91574905D01*
X52903286Y-91670143D01*
X52855667Y-91717762D01*
X52760429Y-91765381D01*
X52522333Y-91765381D01*
X52427095Y-91717762D01*
X52379476Y-91670143D01*
X55475143Y-88780857D02*
X55522762Y-88828476D01*
X55570381Y-88971333D01*
X55570381Y-89066571D01*
X55522762Y-89209429D01*
X55427524Y-89304667D01*
X55332286Y-89352286D01*
X55141810Y-89399905D01*
X54998952Y-89399905D01*
X54808476Y-89352286D01*
X54713238Y-89304667D01*
X54618000Y-89209429D01*
X54570381Y-89066571D01*
X54570381Y-88971333D01*
X54618000Y-88828476D01*
X54665619Y-88780857D01*
X54903714Y-87923714D02*
X55570381Y-87923714D01*
X54522762Y-88161810D02*
X55237048Y-88399905D01*
X55237048Y-87780857D01*
X54570381Y-86971333D02*
X54570381Y-87161810D01*
X54618000Y-87257048D01*
X54665619Y-87304667D01*
X54808476Y-87399905D01*
X54998952Y-87447524D01*
X55379905Y-87447524D01*
X55475143Y-87399905D01*
X55522762Y-87352286D01*
X55570381Y-87257048D01*
X55570381Y-87066571D01*
X55522762Y-86971333D01*
X55475143Y-86923714D01*
X55379905Y-86876095D01*
X55141810Y-86876095D01*
X55046571Y-86923714D01*
X54998952Y-86971333D01*
X54951333Y-87066571D01*
X54951333Y-87257048D01*
X54998952Y-87352286D01*
X55046571Y-87399905D01*
X55141810Y-87447524D01*
X57126143Y-79763857D02*
X57173762Y-79811476D01*
X57221381Y-79954333D01*
X57221381Y-80049571D01*
X57173762Y-80192429D01*
X57078524Y-80287667D01*
X56983286Y-80335286D01*
X56792810Y-80382905D01*
X56649952Y-80382905D01*
X56459476Y-80335286D01*
X56364238Y-80287667D01*
X56269000Y-80192429D01*
X56221381Y-80049571D01*
X56221381Y-79954333D01*
X56269000Y-79811476D01*
X56316619Y-79763857D01*
X56554714Y-78906714D02*
X57221381Y-78906714D01*
X56173762Y-79144810D02*
X56888048Y-79382905D01*
X56888048Y-78763857D01*
X56221381Y-78478143D02*
X56221381Y-77811476D01*
X57221381Y-78240048D01*
D15*
X31493667Y-88594333D02*
X31993667Y-88594333D01*
X32093667Y-88627667D01*
X32160333Y-88694333D01*
X32193667Y-88794333D01*
X32193667Y-88861000D01*
X32193667Y-88261000D02*
X31493667Y-88261000D01*
X31493667Y-87994334D01*
X31527000Y-87927667D01*
X31560333Y-87894334D01*
X31627000Y-87861000D01*
X31727000Y-87861000D01*
X31793667Y-87894334D01*
X31827000Y-87927667D01*
X31860333Y-87994334D01*
X31860333Y-88261000D01*
X31560333Y-87594334D02*
X31527000Y-87561000D01*
X31493667Y-87494334D01*
X31493667Y-87327667D01*
X31527000Y-87261000D01*
X31560333Y-87227667D01*
X31627000Y-87194334D01*
X31693667Y-87194334D01*
X31793667Y-87227667D01*
X32193667Y-87627667D01*
X32193667Y-87194334D01*
X31747667Y-76481666D02*
X32247667Y-76481666D01*
X32347667Y-76515000D01*
X32414333Y-76581666D01*
X32447667Y-76681666D01*
X32447667Y-76748333D01*
X32447667Y-76148333D02*
X31747667Y-76148333D01*
X31747667Y-75881667D01*
X31781000Y-75815000D01*
X31814333Y-75781667D01*
X31881000Y-75748333D01*
X31981000Y-75748333D01*
X32047667Y-75781667D01*
X32081000Y-75815000D01*
X32114333Y-75881667D01*
X32114333Y-76148333D01*
X32447667Y-75081667D02*
X32447667Y-75481667D01*
X32447667Y-75281667D02*
X31747667Y-75281667D01*
X31847667Y-75348333D01*
X31914333Y-75415000D01*
X31947667Y-75481667D01*
X31814333Y-74815000D02*
X31781000Y-74781666D01*
X31747667Y-74715000D01*
X31747667Y-74548333D01*
X31781000Y-74481666D01*
X31814333Y-74448333D01*
X31881000Y-74415000D01*
X31947667Y-74415000D01*
X32047667Y-74448333D01*
X32447667Y-74848333D01*
X32447667Y-74415000D01*
X69949334Y-64640667D02*
X69949334Y-65140667D01*
X69916000Y-65240667D01*
X69849334Y-65307333D01*
X69749334Y-65340667D01*
X69682667Y-65340667D01*
X70282667Y-65340667D02*
X70282667Y-64640667D01*
X70549333Y-64640667D01*
X70616000Y-64674000D01*
X70649333Y-64707333D01*
X70682667Y-64774000D01*
X70682667Y-64874000D01*
X70649333Y-64940667D01*
X70616000Y-64974000D01*
X70549333Y-65007333D01*
X70282667Y-65007333D01*
X71349333Y-65340667D02*
X70949333Y-65340667D01*
X71149333Y-65340667D02*
X71149333Y-64640667D01*
X71082667Y-64740667D01*
X71016000Y-64807333D01*
X70949333Y-64840667D01*
X71582667Y-64640667D02*
X72016000Y-64640667D01*
X71782667Y-64907333D01*
X71882667Y-64907333D01*
X71949334Y-64940667D01*
X71982667Y-64974000D01*
X72016000Y-65040667D01*
X72016000Y-65207333D01*
X71982667Y-65274000D01*
X71949334Y-65307333D01*
X71882667Y-65340667D01*
X71682667Y-65340667D01*
X71616000Y-65307333D01*
X71582667Y-65274000D01*
X35659334Y-62862667D02*
X35659334Y-63362667D01*
X35626000Y-63462667D01*
X35559334Y-63529333D01*
X35459334Y-63562667D01*
X35392667Y-63562667D01*
X35992667Y-63562667D02*
X35992667Y-62862667D01*
X36259333Y-62862667D01*
X36326000Y-62896000D01*
X36359333Y-62929333D01*
X36392667Y-62996000D01*
X36392667Y-63096000D01*
X36359333Y-63162667D01*
X36326000Y-63196000D01*
X36259333Y-63229333D01*
X35992667Y-63229333D01*
X37059333Y-63562667D02*
X36659333Y-63562667D01*
X36859333Y-63562667D02*
X36859333Y-62862667D01*
X36792667Y-62962667D01*
X36726000Y-63029333D01*
X36659333Y-63062667D01*
X37692667Y-62862667D02*
X37359334Y-62862667D01*
X37326000Y-63196000D01*
X37359334Y-63162667D01*
X37426000Y-63129333D01*
X37592667Y-63129333D01*
X37659334Y-63162667D01*
X37692667Y-63196000D01*
X37726000Y-63262667D01*
X37726000Y-63429333D01*
X37692667Y-63496000D01*
X37659334Y-63529333D01*
X37592667Y-63562667D01*
X37426000Y-63562667D01*
X37359334Y-63529333D01*
X37326000Y-63496000D01*
X35659334Y-64513667D02*
X35659334Y-65013667D01*
X35626000Y-65113667D01*
X35559334Y-65180333D01*
X35459334Y-65213667D01*
X35392667Y-65213667D01*
X35992667Y-65213667D02*
X35992667Y-64513667D01*
X36259333Y-64513667D01*
X36326000Y-64547000D01*
X36359333Y-64580333D01*
X36392667Y-64647000D01*
X36392667Y-64747000D01*
X36359333Y-64813667D01*
X36326000Y-64847000D01*
X36259333Y-64880333D01*
X35992667Y-64880333D01*
X37059333Y-65213667D02*
X36659333Y-65213667D01*
X36859333Y-65213667D02*
X36859333Y-64513667D01*
X36792667Y-64613667D01*
X36726000Y-64680333D01*
X36659333Y-64713667D01*
X37659334Y-64513667D02*
X37526000Y-64513667D01*
X37459334Y-64547000D01*
X37426000Y-64580333D01*
X37359334Y-64680333D01*
X37326000Y-64813667D01*
X37326000Y-65080333D01*
X37359334Y-65147000D01*
X37392667Y-65180333D01*
X37459334Y-65213667D01*
X37592667Y-65213667D01*
X37659334Y-65180333D01*
X37692667Y-65147000D01*
X37726000Y-65080333D01*
X37726000Y-64913667D01*
X37692667Y-64847000D01*
X37659334Y-64813667D01*
X37592667Y-64780333D01*
X37459334Y-64780333D01*
X37392667Y-64813667D01*
X37359334Y-64847000D01*
X37326000Y-64913667D01*
D11*
X47966334Y-73858381D02*
X47490143Y-73858381D01*
X47490143Y-72858381D01*
X48823477Y-73858381D02*
X48252048Y-73858381D01*
X48537762Y-73858381D02*
X48537762Y-72858381D01*
X48442524Y-73001238D01*
X48347286Y-73096476D01*
X48252048Y-73144095D01*
X51014334Y-90368381D02*
X50538143Y-90368381D01*
X50538143Y-89368381D01*
X51252429Y-89368381D02*
X51871477Y-89368381D01*
X51538143Y-89749333D01*
X51681001Y-89749333D01*
X51776239Y-89796952D01*
X51823858Y-89844571D01*
X51871477Y-89939810D01*
X51871477Y-90177905D01*
X51823858Y-90273143D01*
X51776239Y-90320762D01*
X51681001Y-90368381D01*
X51395286Y-90368381D01*
X51300048Y-90320762D01*
X51252429Y-90273143D01*
D16*
X28145619Y-108905524D02*
X28145619Y-107635524D01*
X28629428Y-107635524D01*
X28750381Y-107696000D01*
X28810857Y-107756476D01*
X28871333Y-107877429D01*
X28871333Y-108058857D01*
X28810857Y-108179810D01*
X28750381Y-108240286D01*
X28629428Y-108300762D01*
X28145619Y-108300762D01*
X30080857Y-108905524D02*
X29355143Y-108905524D01*
X29718000Y-108905524D02*
X29718000Y-107635524D01*
X29597048Y-107816952D01*
X29476095Y-107937905D01*
X29355143Y-107998381D01*
D11*
X76223905Y-43124381D02*
X76223905Y-42124381D01*
X76604858Y-42124381D01*
X76700096Y-42172000D01*
X76747715Y-42219619D01*
X76795334Y-42314857D01*
X76795334Y-42457714D01*
X76747715Y-42552952D01*
X76700096Y-42600571D01*
X76604858Y-42648190D01*
X76223905Y-42648190D01*
X77176286Y-42219619D02*
X77223905Y-42172000D01*
X77319143Y-42124381D01*
X77557239Y-42124381D01*
X77652477Y-42172000D01*
X77700096Y-42219619D01*
X77747715Y-42314857D01*
X77747715Y-42410095D01*
X77700096Y-42552952D01*
X77128667Y-43124381D01*
X77747715Y-43124381D01*
X27963905Y-43124381D02*
X27963905Y-42124381D01*
X28344858Y-42124381D01*
X28440096Y-42172000D01*
X28487715Y-42219619D01*
X28535334Y-42314857D01*
X28535334Y-42457714D01*
X28487715Y-42552952D01*
X28440096Y-42600571D01*
X28344858Y-42648190D01*
X27963905Y-42648190D01*
X28868667Y-42124381D02*
X29487715Y-42124381D01*
X29154381Y-42505333D01*
X29297239Y-42505333D01*
X29392477Y-42552952D01*
X29440096Y-42600571D01*
X29487715Y-42695810D01*
X29487715Y-42933905D01*
X29440096Y-43029143D01*
X29392477Y-43076762D01*
X29297239Y-43124381D01*
X29011524Y-43124381D01*
X28916286Y-43076762D01*
X28868667Y-43029143D01*
D17*
X67830096Y-39829619D02*
X67830096Y-38813619D01*
X68217143Y-38813619D01*
X68313905Y-38862000D01*
X68362286Y-38910381D01*
X68410667Y-39007143D01*
X68410667Y-39152286D01*
X68362286Y-39249048D01*
X68313905Y-39297429D01*
X68217143Y-39345810D01*
X67830096Y-39345810D01*
X69281524Y-39152286D02*
X69281524Y-39829619D01*
X69039620Y-38765238D02*
X68797715Y-39490952D01*
X69426667Y-39490952D01*
D11*
X34186905Y-38425381D02*
X34186905Y-37425381D01*
X34567858Y-37425381D01*
X34663096Y-37473000D01*
X34710715Y-37520619D01*
X34758334Y-37615857D01*
X34758334Y-37758714D01*
X34710715Y-37853952D01*
X34663096Y-37901571D01*
X34567858Y-37949190D01*
X34186905Y-37949190D01*
X35663096Y-37425381D02*
X35186905Y-37425381D01*
X35139286Y-37901571D01*
X35186905Y-37853952D01*
X35282143Y-37806333D01*
X35520239Y-37806333D01*
X35615477Y-37853952D01*
X35663096Y-37901571D01*
X35710715Y-37996810D01*
X35710715Y-38234905D01*
X35663096Y-38330143D01*
X35615477Y-38377762D01*
X35520239Y-38425381D01*
X35282143Y-38425381D01*
X35186905Y-38377762D01*
X35139286Y-38330143D01*
D18*
X74440143Y-109909429D02*
X74440143Y-108385429D01*
X75020715Y-108385429D01*
X75165857Y-108458000D01*
X75238429Y-108530571D01*
X75311000Y-108675714D01*
X75311000Y-108893429D01*
X75238429Y-109038571D01*
X75165857Y-109111143D01*
X75020715Y-109183714D01*
X74440143Y-109183714D01*
X76617286Y-108385429D02*
X76327000Y-108385429D01*
X76181857Y-108458000D01*
X76109286Y-108530571D01*
X75964143Y-108748286D01*
X75891572Y-109038571D01*
X75891572Y-109619143D01*
X75964143Y-109764286D01*
X76036715Y-109836857D01*
X76181857Y-109909429D01*
X76472143Y-109909429D01*
X76617286Y-109836857D01*
X76689857Y-109764286D01*
X76762429Y-109619143D01*
X76762429Y-109256286D01*
X76689857Y-109111143D01*
X76617286Y-109038571D01*
X76472143Y-108966000D01*
X76181857Y-108966000D01*
X76036715Y-109038571D01*
X75964143Y-109111143D01*
X75891572Y-109256286D01*
D11*
X42616381Y-80811666D02*
X42140190Y-81145000D01*
X42616381Y-81383095D02*
X41616381Y-81383095D01*
X41616381Y-81002142D01*
X41664000Y-80906904D01*
X41711619Y-80859285D01*
X41806857Y-80811666D01*
X41949714Y-80811666D01*
X42044952Y-80859285D01*
X42092571Y-80906904D01*
X42140190Y-81002142D01*
X42140190Y-81383095D01*
X42616381Y-79859285D02*
X42616381Y-80430714D01*
X42616381Y-80145000D02*
X41616381Y-80145000D01*
X41759238Y-80240238D01*
X41854476Y-80335476D01*
X41902095Y-80430714D01*
X35631381Y-98591666D02*
X35155190Y-98925000D01*
X35631381Y-99163095D02*
X34631381Y-99163095D01*
X34631381Y-98782142D01*
X34679000Y-98686904D01*
X34726619Y-98639285D01*
X34821857Y-98591666D01*
X34964714Y-98591666D01*
X35059952Y-98639285D01*
X35107571Y-98686904D01*
X35155190Y-98782142D01*
X35155190Y-99163095D01*
X34726619Y-98210714D02*
X34679000Y-98163095D01*
X34631381Y-98067857D01*
X34631381Y-97829761D01*
X34679000Y-97734523D01*
X34726619Y-97686904D01*
X34821857Y-97639285D01*
X34917095Y-97639285D01*
X35059952Y-97686904D01*
X35631381Y-98258333D01*
X35631381Y-97639285D01*
D14*
X33688262Y-76686833D02*
X33385881Y-76898500D01*
X33688262Y-77049691D02*
X33053262Y-77049691D01*
X33053262Y-76807786D01*
X33083500Y-76747310D01*
X33113738Y-76717071D01*
X33174214Y-76686833D01*
X33264929Y-76686833D01*
X33325405Y-76717071D01*
X33355643Y-76747310D01*
X33385881Y-76807786D01*
X33385881Y-77049691D01*
X33053262Y-76475167D02*
X33053262Y-76082071D01*
X33295167Y-76293738D01*
X33295167Y-76203024D01*
X33325405Y-76142548D01*
X33355643Y-76112310D01*
X33416119Y-76082071D01*
X33567310Y-76082071D01*
X33627786Y-76112310D01*
X33658024Y-76142548D01*
X33688262Y-76203024D01*
X33688262Y-76384452D01*
X33658024Y-76444929D01*
X33627786Y-76475167D01*
D11*
X41981381Y-100115666D02*
X41505190Y-100449000D01*
X41981381Y-100687095D02*
X40981381Y-100687095D01*
X40981381Y-100306142D01*
X41029000Y-100210904D01*
X41076619Y-100163285D01*
X41171857Y-100115666D01*
X41314714Y-100115666D01*
X41409952Y-100163285D01*
X41457571Y-100210904D01*
X41505190Y-100306142D01*
X41505190Y-100687095D01*
X41314714Y-99258523D02*
X41981381Y-99258523D01*
X40933762Y-99496619D02*
X41648048Y-99734714D01*
X41648048Y-99115666D01*
X52141381Y-97702666D02*
X51665190Y-98036000D01*
X52141381Y-98274095D02*
X51141381Y-98274095D01*
X51141381Y-97893142D01*
X51189000Y-97797904D01*
X51236619Y-97750285D01*
X51331857Y-97702666D01*
X51474714Y-97702666D01*
X51569952Y-97750285D01*
X51617571Y-97797904D01*
X51665190Y-97893142D01*
X51665190Y-98274095D01*
X51141381Y-96797904D02*
X51141381Y-97274095D01*
X51617571Y-97321714D01*
X51569952Y-97274095D01*
X51522333Y-97178857D01*
X51522333Y-96940761D01*
X51569952Y-96845523D01*
X51617571Y-96797904D01*
X51712810Y-96750285D01*
X51950905Y-96750285D01*
X52046143Y-96797904D01*
X52093762Y-96845523D01*
X52141381Y-96940761D01*
X52141381Y-97178857D01*
X52093762Y-97274095D01*
X52046143Y-97321714D01*
X44918334Y-91257381D02*
X44585000Y-90781190D01*
X44346905Y-91257381D02*
X44346905Y-90257381D01*
X44727858Y-90257381D01*
X44823096Y-90305000D01*
X44870715Y-90352619D01*
X44918334Y-90447857D01*
X44918334Y-90590714D01*
X44870715Y-90685952D01*
X44823096Y-90733571D01*
X44727858Y-90781190D01*
X44346905Y-90781190D01*
X45775477Y-90257381D02*
X45585000Y-90257381D01*
X45489762Y-90305000D01*
X45442143Y-90352619D01*
X45346905Y-90495476D01*
X45299286Y-90685952D01*
X45299286Y-91066905D01*
X45346905Y-91162143D01*
X45394524Y-91209762D01*
X45489762Y-91257381D01*
X45680239Y-91257381D01*
X45775477Y-91209762D01*
X45823096Y-91162143D01*
X45870715Y-91066905D01*
X45870715Y-90828810D01*
X45823096Y-90733571D01*
X45775477Y-90685952D01*
X45680239Y-90638333D01*
X45489762Y-90638333D01*
X45394524Y-90685952D01*
X45346905Y-90733571D01*
X45299286Y-90828810D01*
X32853334Y-85867581D02*
X32520000Y-85391390D01*
X32281905Y-85867581D02*
X32281905Y-84867581D01*
X32662858Y-84867581D01*
X32758096Y-84915200D01*
X32805715Y-84962819D01*
X32853334Y-85058057D01*
X32853334Y-85200914D01*
X32805715Y-85296152D01*
X32758096Y-85343771D01*
X32662858Y-85391390D01*
X32281905Y-85391390D01*
X33186667Y-84867581D02*
X33853334Y-84867581D01*
X33424762Y-85867581D01*
X45156381Y-97702666D02*
X44680190Y-98036000D01*
X45156381Y-98274095D02*
X44156381Y-98274095D01*
X44156381Y-97893142D01*
X44204000Y-97797904D01*
X44251619Y-97750285D01*
X44346857Y-97702666D01*
X44489714Y-97702666D01*
X44584952Y-97750285D01*
X44632571Y-97797904D01*
X44680190Y-97893142D01*
X44680190Y-98274095D01*
X45156381Y-97226476D02*
X45156381Y-97036000D01*
X45108762Y-96940761D01*
X45061143Y-96893142D01*
X44918286Y-96797904D01*
X44727810Y-96750285D01*
X44346857Y-96750285D01*
X44251619Y-96797904D01*
X44204000Y-96845523D01*
X44156381Y-96940761D01*
X44156381Y-97131238D01*
X44204000Y-97226476D01*
X44251619Y-97274095D01*
X44346857Y-97321714D01*
X44584952Y-97321714D01*
X44680190Y-97274095D01*
X44727810Y-97226476D01*
X44775429Y-97131238D01*
X44775429Y-96940761D01*
X44727810Y-96845523D01*
X44680190Y-96797904D01*
X44584952Y-96750285D01*
X34536143Y-62174381D02*
X34202809Y-61698190D01*
X33964714Y-62174381D02*
X33964714Y-61174381D01*
X34345667Y-61174381D01*
X34440905Y-61222000D01*
X34488524Y-61269619D01*
X34536143Y-61364857D01*
X34536143Y-61507714D01*
X34488524Y-61602952D01*
X34440905Y-61650571D01*
X34345667Y-61698190D01*
X33964714Y-61698190D01*
X35488524Y-62174381D02*
X34917095Y-62174381D01*
X35202809Y-62174381D02*
X35202809Y-61174381D01*
X35107571Y-61317238D01*
X35012333Y-61412476D01*
X34917095Y-61460095D01*
X35869476Y-61269619D02*
X35917095Y-61222000D01*
X36012333Y-61174381D01*
X36250429Y-61174381D01*
X36345667Y-61222000D01*
X36393286Y-61269619D01*
X36440905Y-61364857D01*
X36440905Y-61460095D01*
X36393286Y-61602952D01*
X35821857Y-62174381D01*
X36440905Y-62174381D01*
X36949143Y-55316381D02*
X36615809Y-54840190D01*
X36377714Y-55316381D02*
X36377714Y-54316381D01*
X36758667Y-54316381D01*
X36853905Y-54364000D01*
X36901524Y-54411619D01*
X36949143Y-54506857D01*
X36949143Y-54649714D01*
X36901524Y-54744952D01*
X36853905Y-54792571D01*
X36758667Y-54840190D01*
X36377714Y-54840190D01*
X37901524Y-55316381D02*
X37330095Y-55316381D01*
X37615809Y-55316381D02*
X37615809Y-54316381D01*
X37520571Y-54459238D01*
X37425333Y-54554476D01*
X37330095Y-54602095D01*
X38234857Y-54316381D02*
X38853905Y-54316381D01*
X38520571Y-54697333D01*
X38663429Y-54697333D01*
X38758667Y-54744952D01*
X38806286Y-54792571D01*
X38853905Y-54887810D01*
X38853905Y-55125905D01*
X38806286Y-55221143D01*
X38758667Y-55268762D01*
X38663429Y-55316381D01*
X38377714Y-55316381D01*
X38282476Y-55268762D01*
X38234857Y-55221143D01*
X56967381Y-73794857D02*
X56491190Y-74128191D01*
X56967381Y-74366286D02*
X55967381Y-74366286D01*
X55967381Y-73985333D01*
X56015000Y-73890095D01*
X56062619Y-73842476D01*
X56157857Y-73794857D01*
X56300714Y-73794857D01*
X56395952Y-73842476D01*
X56443571Y-73890095D01*
X56491190Y-73985333D01*
X56491190Y-74366286D01*
X56967381Y-72842476D02*
X56967381Y-73413905D01*
X56967381Y-73128191D02*
X55967381Y-73128191D01*
X56110238Y-73223429D01*
X56205476Y-73318667D01*
X56253095Y-73413905D01*
X56395952Y-72271048D02*
X56348333Y-72366286D01*
X56300714Y-72413905D01*
X56205476Y-72461524D01*
X56157857Y-72461524D01*
X56062619Y-72413905D01*
X56015000Y-72366286D01*
X55967381Y-72271048D01*
X55967381Y-72080571D01*
X56015000Y-71985333D01*
X56062619Y-71937714D01*
X56157857Y-71890095D01*
X56205476Y-71890095D01*
X56300714Y-71937714D01*
X56348333Y-71985333D01*
X56395952Y-72080571D01*
X56395952Y-72271048D01*
X56443571Y-72366286D01*
X56491190Y-72413905D01*
X56586429Y-72461524D01*
X56776905Y-72461524D01*
X56872143Y-72413905D01*
X56919762Y-72366286D01*
X56967381Y-72271048D01*
X56967381Y-72080571D01*
X56919762Y-71985333D01*
X56872143Y-71937714D01*
X56776905Y-71890095D01*
X56586429Y-71890095D01*
X56491190Y-71937714D01*
X56443571Y-71985333D01*
X56395952Y-72080571D01*
X41092381Y-41917857D02*
X40616190Y-42251191D01*
X41092381Y-42489286D02*
X40092381Y-42489286D01*
X40092381Y-42108333D01*
X40140000Y-42013095D01*
X40187619Y-41965476D01*
X40282857Y-41917857D01*
X40425714Y-41917857D01*
X40520952Y-41965476D01*
X40568571Y-42013095D01*
X40616190Y-42108333D01*
X40616190Y-42489286D01*
X40187619Y-41536905D02*
X40140000Y-41489286D01*
X40092381Y-41394048D01*
X40092381Y-41155952D01*
X40140000Y-41060714D01*
X40187619Y-41013095D01*
X40282857Y-40965476D01*
X40378095Y-40965476D01*
X40520952Y-41013095D01*
X41092381Y-41584524D01*
X41092381Y-40965476D01*
X40092381Y-40632143D02*
X40092381Y-39965476D01*
X41092381Y-40394048D01*
X59174143Y-84018381D02*
X58840809Y-83542190D01*
X58602714Y-84018381D02*
X58602714Y-83018381D01*
X58983667Y-83018381D01*
X59078905Y-83066000D01*
X59126524Y-83113619D01*
X59174143Y-83208857D01*
X59174143Y-83351714D01*
X59126524Y-83446952D01*
X59078905Y-83494571D01*
X58983667Y-83542190D01*
X58602714Y-83542190D01*
X59507476Y-83018381D02*
X60126524Y-83018381D01*
X59793190Y-83399333D01*
X59936048Y-83399333D01*
X60031286Y-83446952D01*
X60078905Y-83494571D01*
X60126524Y-83589810D01*
X60126524Y-83827905D01*
X60078905Y-83923143D01*
X60031286Y-83970762D01*
X59936048Y-84018381D01*
X59650333Y-84018381D01*
X59555095Y-83970762D01*
X59507476Y-83923143D01*
X60459857Y-83018381D02*
X61078905Y-83018381D01*
X60745571Y-83399333D01*
X60888429Y-83399333D01*
X60983667Y-83446952D01*
X61031286Y-83494571D01*
X61078905Y-83589810D01*
X61078905Y-83827905D01*
X61031286Y-83923143D01*
X60983667Y-83970762D01*
X60888429Y-84018381D01*
X60602714Y-84018381D01*
X60507476Y-83970762D01*
X60459857Y-83923143D01*
D14*
X49309262Y-84355214D02*
X49006881Y-84566881D01*
X49309262Y-84718072D02*
X48674262Y-84718072D01*
X48674262Y-84476167D01*
X48704500Y-84415691D01*
X48734738Y-84385452D01*
X48795214Y-84355214D01*
X48885929Y-84355214D01*
X48946405Y-84385452D01*
X48976643Y-84415691D01*
X49006881Y-84476167D01*
X49006881Y-84718072D01*
X48674262Y-84143548D02*
X48674262Y-83750452D01*
X48916167Y-83962119D01*
X48916167Y-83871405D01*
X48946405Y-83810929D01*
X48976643Y-83780691D01*
X49037119Y-83750452D01*
X49188310Y-83750452D01*
X49248786Y-83780691D01*
X49279024Y-83810929D01*
X49309262Y-83871405D01*
X49309262Y-84052833D01*
X49279024Y-84113310D01*
X49248786Y-84143548D01*
X48674262Y-83175929D02*
X48674262Y-83478310D01*
X48976643Y-83508548D01*
X48946405Y-83478310D01*
X48916167Y-83417833D01*
X48916167Y-83266643D01*
X48946405Y-83206167D01*
X48976643Y-83175929D01*
X49037119Y-83145690D01*
X49188310Y-83145690D01*
X49248786Y-83175929D01*
X49279024Y-83206167D01*
X49309262Y-83266643D01*
X49309262Y-83417833D01*
X49279024Y-83478310D01*
X49248786Y-83508548D01*
D11*
X51554143Y-79827381D02*
X51220809Y-79351190D01*
X50982714Y-79827381D02*
X50982714Y-78827381D01*
X51363667Y-78827381D01*
X51458905Y-78875000D01*
X51506524Y-78922619D01*
X51554143Y-79017857D01*
X51554143Y-79160714D01*
X51506524Y-79255952D01*
X51458905Y-79303571D01*
X51363667Y-79351190D01*
X50982714Y-79351190D01*
X51887476Y-78827381D02*
X52506524Y-78827381D01*
X52173190Y-79208333D01*
X52316048Y-79208333D01*
X52411286Y-79255952D01*
X52458905Y-79303571D01*
X52506524Y-79398810D01*
X52506524Y-79636905D01*
X52458905Y-79732143D01*
X52411286Y-79779762D01*
X52316048Y-79827381D01*
X52030333Y-79827381D01*
X51935095Y-79779762D01*
X51887476Y-79732143D01*
X53363667Y-78827381D02*
X53173190Y-78827381D01*
X53077952Y-78875000D01*
X53030333Y-78922619D01*
X52935095Y-79065476D01*
X52887476Y-79255952D01*
X52887476Y-79636905D01*
X52935095Y-79732143D01*
X52982714Y-79779762D01*
X53077952Y-79827381D01*
X53268429Y-79827381D01*
X53363667Y-79779762D01*
X53411286Y-79732143D01*
X53458905Y-79636905D01*
X53458905Y-79398810D01*
X53411286Y-79303571D01*
X53363667Y-79255952D01*
X53268429Y-79208333D01*
X53077952Y-79208333D01*
X52982714Y-79255952D01*
X52935095Y-79303571D01*
X52887476Y-79398810D01*
D14*
X35457190Y-81313262D02*
X35457190Y-81827310D01*
X35487429Y-81887786D01*
X35517667Y-81918024D01*
X35578143Y-81948262D01*
X35699095Y-81948262D01*
X35759571Y-81918024D01*
X35789810Y-81887786D01*
X35820048Y-81827310D01*
X35820048Y-81313262D01*
X36455048Y-81948262D02*
X36092190Y-81948262D01*
X36273619Y-81948262D02*
X36273619Y-81313262D01*
X36213143Y-81403976D01*
X36152667Y-81464452D01*
X36092190Y-81494690D01*
D19*
X33201429Y-70956714D02*
X33201429Y-71573571D01*
X33237714Y-71646143D01*
X33274000Y-71682429D01*
X33346571Y-71718714D01*
X33491714Y-71718714D01*
X33564286Y-71682429D01*
X33600571Y-71646143D01*
X33636857Y-71573571D01*
X33636857Y-70956714D01*
X33963429Y-71029286D02*
X33999715Y-70993000D01*
X34072286Y-70956714D01*
X34253715Y-70956714D01*
X34326286Y-70993000D01*
X34362572Y-71029286D01*
X34398857Y-71101857D01*
X34398857Y-71174429D01*
X34362572Y-71283286D01*
X33927143Y-71718714D01*
X34398857Y-71718714D01*
X32590619Y-91131571D02*
X33413095Y-91131571D01*
X33509857Y-91095286D01*
X33558238Y-91059000D01*
X33606619Y-90986429D01*
X33606619Y-90841286D01*
X33558238Y-90768714D01*
X33509857Y-90732429D01*
X33413095Y-90696143D01*
X32590619Y-90696143D01*
X32590619Y-90405857D02*
X32590619Y-89934143D01*
X32977667Y-90188143D01*
X32977667Y-90079285D01*
X33026048Y-90006714D01*
X33074429Y-89970428D01*
X33171190Y-89934143D01*
X33413095Y-89934143D01*
X33509857Y-89970428D01*
X33558238Y-90006714D01*
X33606619Y-90079285D01*
X33606619Y-90297000D01*
X33558238Y-90369571D01*
X33509857Y-90405857D01*
D11*
X46609095Y-83653381D02*
X46609095Y-84462905D01*
X46656714Y-84558143D01*
X46704333Y-84605762D01*
X46799571Y-84653381D01*
X46990048Y-84653381D01*
X47085286Y-84605762D01*
X47132905Y-84558143D01*
X47180524Y-84462905D01*
X47180524Y-83653381D01*
X48085286Y-83986714D02*
X48085286Y-84653381D01*
X47847190Y-83605762D02*
X47609095Y-84320048D01*
X48228143Y-84320048D01*
D19*
X36757429Y-56478714D02*
X36757429Y-57095571D01*
X36793714Y-57168143D01*
X36830000Y-57204429D01*
X36902571Y-57240714D01*
X37047714Y-57240714D01*
X37120286Y-57204429D01*
X37156571Y-57168143D01*
X37192857Y-57095571D01*
X37192857Y-56478714D01*
X37918572Y-56478714D02*
X37555715Y-56478714D01*
X37519429Y-56841571D01*
X37555715Y-56805286D01*
X37628286Y-56769000D01*
X37809715Y-56769000D01*
X37882286Y-56805286D01*
X37918572Y-56841571D01*
X37954857Y-56914143D01*
X37954857Y-57095571D01*
X37918572Y-57168143D01*
X37882286Y-57204429D01*
X37809715Y-57240714D01*
X37628286Y-57240714D01*
X37555715Y-57204429D01*
X37519429Y-57168143D01*
D11*
X53975095Y-75398381D02*
X53975095Y-76207905D01*
X54022714Y-76303143D01*
X54070333Y-76350762D01*
X54165571Y-76398381D01*
X54356048Y-76398381D01*
X54451286Y-76350762D01*
X54498905Y-76303143D01*
X54546524Y-76207905D01*
X54546524Y-75398381D01*
X55165571Y-75826952D02*
X55070333Y-75779333D01*
X55022714Y-75731714D01*
X54975095Y-75636476D01*
X54975095Y-75588857D01*
X55022714Y-75493619D01*
X55070333Y-75446000D01*
X55165571Y-75398381D01*
X55356048Y-75398381D01*
X55451286Y-75446000D01*
X55498905Y-75493619D01*
X55546524Y-75588857D01*
X55546524Y-75636476D01*
X55498905Y-75731714D01*
X55451286Y-75779333D01*
X55356048Y-75826952D01*
X55165571Y-75826952D01*
X55070333Y-75874571D01*
X55022714Y-75922190D01*
X54975095Y-76017429D01*
X54975095Y-76207905D01*
X55022714Y-76303143D01*
X55070333Y-76350762D01*
X55165571Y-76398381D01*
X55356048Y-76398381D01*
X55451286Y-76350762D01*
X55498905Y-76303143D01*
X55546524Y-76207905D01*
X55546524Y-76017429D01*
X55498905Y-75922190D01*
X55451286Y-75874571D01*
X55356048Y-75826952D01*
X54641905Y-85304381D02*
X54641905Y-86113905D01*
X54689524Y-86209143D01*
X54737143Y-86256762D01*
X54832381Y-86304381D01*
X55022858Y-86304381D01*
X55118096Y-86256762D01*
X55165715Y-86209143D01*
X55213334Y-86113905D01*
X55213334Y-85304381D01*
X56213334Y-86304381D02*
X55641905Y-86304381D01*
X55927619Y-86304381D02*
X55927619Y-85304381D01*
X55832381Y-85447238D01*
X55737143Y-85542476D01*
X55641905Y-85590095D01*
X57165715Y-86304381D02*
X56594286Y-86304381D01*
X56880000Y-86304381D02*
X56880000Y-85304381D01*
X56784762Y-85447238D01*
X56689524Y-85542476D01*
X56594286Y-85590095D01*
X68984905Y-93924381D02*
X68984905Y-92924381D01*
X69365858Y-92924381D01*
X69461096Y-92972000D01*
X69508715Y-93019619D01*
X69556334Y-93114857D01*
X69556334Y-93257714D01*
X69508715Y-93352952D01*
X69461096Y-93400571D01*
X69365858Y-93448190D01*
X68984905Y-93448190D01*
X69889667Y-92924381D02*
X70556334Y-92924381D01*
X70127762Y-93924381D01*
X61110905Y-66365381D02*
X61110905Y-65365381D01*
X61491858Y-65365381D01*
X61587096Y-65413000D01*
X61634715Y-65460619D01*
X61682334Y-65555857D01*
X61682334Y-65698714D01*
X61634715Y-65793952D01*
X61587096Y-65841571D01*
X61491858Y-65889190D01*
X61110905Y-65889190D01*
X62253762Y-65793952D02*
X62158524Y-65746333D01*
X62110905Y-65698714D01*
X62063286Y-65603476D01*
X62063286Y-65555857D01*
X62110905Y-65460619D01*
X62158524Y-65413000D01*
X62253762Y-65365381D01*
X62444239Y-65365381D01*
X62539477Y-65413000D01*
X62587096Y-65460619D01*
X62634715Y-65555857D01*
X62634715Y-65603476D01*
X62587096Y-65698714D01*
X62539477Y-65746333D01*
X62444239Y-65793952D01*
X62253762Y-65793952D01*
X62158524Y-65841571D01*
X62110905Y-65889190D01*
X62063286Y-65984429D01*
X62063286Y-66174905D01*
X62110905Y-66270143D01*
X62158524Y-66317762D01*
X62253762Y-66365381D01*
X62444239Y-66365381D01*
X62539477Y-66317762D01*
X62587096Y-66270143D01*
X62634715Y-66174905D01*
X62634715Y-65984429D01*
X62587096Y-65889190D01*
X62539477Y-65841571D01*
X62444239Y-65793952D01*
M02*
