G04 #@! TF.FileFunction,Legend,Bot*
%FSLAX46Y46*%
G04 Gerber Fmt 4.6, Leading zero omitted, Abs format (unit mm)*
G04 Created by KiCad (PCBNEW (2015-02-03 BZR 5404)-product) date 9/2/2015 4:33:54 PM*
%MOMM*%
G01*
G04 APERTURE LIST*
%ADD10C,0.100000*%
%ADD11C,0.150000*%
%ADD12C,0.127000*%
%ADD13C,0.101600*%
%ADD14C,0.160000*%
%ADD15C,0.190500*%
%ADD16C,0.125000*%
G04 APERTURE END LIST*
D10*
D11*
X35468000Y-93757000D02*
X35468000Y-94457000D01*
X36668000Y-94457000D02*
X36668000Y-93757000D01*
X35066500Y-63262000D02*
X35066500Y-65262000D01*
X32116500Y-65262000D02*
X32116500Y-63262000D01*
X37902400Y-91227200D02*
X38602400Y-91227200D01*
X38602400Y-90027200D02*
X37902400Y-90027200D01*
X38414400Y-83724000D02*
X38414400Y-84424000D01*
X39614400Y-84424000D02*
X39614400Y-83724000D01*
X37902400Y-92649600D02*
X38602400Y-92649600D01*
X38602400Y-91449600D02*
X37902400Y-91449600D01*
X38192000Y-94457000D02*
X38192000Y-93757000D01*
X36992000Y-93757000D02*
X36992000Y-94457000D01*
X63772300Y-81816500D02*
X64472300Y-81816500D01*
X64472300Y-80616500D02*
X63772300Y-80616500D01*
X68595800Y-86075000D02*
X68595800Y-85375000D01*
X67395800Y-85375000D02*
X67395800Y-86075000D01*
X38259500Y-70583500D02*
X37559500Y-70583500D01*
X37559500Y-71783500D02*
X38259500Y-71783500D01*
X61691000Y-59915500D02*
X60991000Y-59915500D01*
X60991000Y-61115500D02*
X61691000Y-61115500D01*
X45678800Y-68585600D02*
X45678800Y-69285600D01*
X46878800Y-69285600D02*
X46878800Y-68585600D01*
X58467500Y-62366000D02*
X56467500Y-62366000D01*
X56467500Y-60316000D02*
X58467500Y-60316000D01*
X52873800Y-59724800D02*
X52873800Y-57724800D01*
X54923800Y-57724800D02*
X54923800Y-59724800D01*
X49158400Y-64982200D02*
X47158400Y-64982200D01*
X47158400Y-62932200D02*
X49158400Y-62932200D01*
X42584000Y-58615200D02*
X42584000Y-57615200D01*
X44284000Y-57615200D02*
X44284000Y-58615200D01*
X44647600Y-64525600D02*
X43947600Y-64525600D01*
X43947600Y-65725600D02*
X44647600Y-65725600D01*
X31454800Y-54666400D02*
X31454800Y-55366400D01*
X32654800Y-55366400D02*
X32654800Y-54666400D01*
X34229600Y-55366400D02*
X34229600Y-54666400D01*
X33029600Y-54666400D02*
X33029600Y-55366400D01*
X51514500Y-51362500D02*
X53514500Y-51362500D01*
X53514500Y-53412500D02*
X51514500Y-53412500D01*
X42866200Y-50580800D02*
X42866200Y-48580800D01*
X44916200Y-48580800D02*
X44916200Y-50580800D01*
X42383600Y-55279800D02*
X42383600Y-53279800D01*
X44433600Y-53279800D02*
X44433600Y-55279800D01*
X41659100Y-67812400D02*
X41659100Y-67112400D01*
X40459100Y-67112400D02*
X40459100Y-67812400D01*
X56038000Y-52098500D02*
X56738000Y-52098500D01*
X56738000Y-50898500D02*
X56038000Y-50898500D01*
X39339000Y-60868000D02*
X38639000Y-60868000D01*
X38639000Y-62068000D02*
X39339000Y-62068000D01*
X50434500Y-61049000D02*
X50434500Y-62649000D01*
X41481000Y-62420600D02*
X41481000Y-64020600D01*
X50448000Y-59946800D02*
X50448000Y-53946800D01*
X50448000Y-53946800D02*
X44548000Y-53946800D01*
X44548000Y-53946800D02*
X44548000Y-59946800D01*
X44548000Y-59946800D02*
X50448000Y-59946800D01*
X42306400Y-59984800D02*
X42306400Y-52384800D01*
X42306400Y-52384800D02*
X34706400Y-52384800D01*
X34706400Y-52384800D02*
X34706400Y-59984800D01*
X34706400Y-59984800D02*
X42306400Y-59984800D01*
X40547821Y-60484800D02*
G75*
G03X40547821Y-60484800I-141421J0D01*
G01*
X66929000Y-69088000D02*
X66929000Y-72136000D01*
X66929000Y-72136000D02*
X67691000Y-72136000D01*
X67691000Y-72136000D02*
X67691000Y-69088000D01*
X67691000Y-69088000D02*
X66929000Y-69088000D01*
X32091000Y-60015500D02*
X32091000Y-61015500D01*
X33441000Y-61015500D02*
X33441000Y-60015500D01*
X67556000Y-67270000D02*
X66556000Y-67270000D01*
X66556000Y-68620000D02*
X67556000Y-68620000D01*
X63841000Y-70112000D02*
X63841000Y-71112000D01*
X65191000Y-71112000D02*
X65191000Y-70112000D01*
X64722300Y-89739500D02*
X63522300Y-89739500D01*
X63522300Y-91489500D02*
X64722300Y-91489500D01*
X31583000Y-71255000D02*
X31583000Y-72255000D01*
X32933000Y-72255000D02*
X32933000Y-71255000D01*
X34615500Y-71922000D02*
X35615500Y-71922000D01*
X35615500Y-70572000D02*
X34615500Y-70572000D01*
X64384300Y-80240500D02*
X65384300Y-80240500D01*
X65384300Y-78890500D02*
X64384300Y-78890500D01*
X54265800Y-63338000D02*
X54265800Y-62138000D01*
X52515800Y-62138000D02*
X52515800Y-63338000D01*
X59840500Y-57856500D02*
X59840500Y-58856500D01*
X61190500Y-58856500D02*
X61190500Y-57856500D01*
X43990900Y-68283200D02*
X43990900Y-69283200D01*
X45340900Y-69283200D02*
X45340900Y-68283200D01*
X61555000Y-57856500D02*
X61555000Y-58856500D01*
X62905000Y-58856500D02*
X62905000Y-57856500D01*
X57729500Y-56428000D02*
X58729500Y-56428000D01*
X58729500Y-55078000D02*
X57729500Y-55078000D01*
X45546900Y-66012700D02*
X44546900Y-66012700D01*
X44546900Y-67362700D02*
X45546900Y-67362700D01*
X32679000Y-58310400D02*
X32679000Y-57310400D01*
X31329000Y-57310400D02*
X31329000Y-58310400D01*
X41054400Y-65851400D02*
X42054400Y-65851400D01*
X42054400Y-64501400D02*
X41054400Y-64501400D01*
X53459000Y-46188000D02*
X52459000Y-46188000D01*
X52459000Y-47538000D02*
X53459000Y-47538000D01*
X34355400Y-58310400D02*
X34355400Y-57310400D01*
X33005400Y-57310400D02*
X33005400Y-58310400D01*
X56602000Y-48839500D02*
X56602000Y-49839500D01*
X57952000Y-49839500D02*
X57952000Y-48839500D01*
X43270800Y-67911600D02*
X43270800Y-66911600D01*
X41920800Y-66911600D02*
X41920800Y-67911600D01*
X56237500Y-49839500D02*
X56237500Y-48839500D01*
X54887500Y-48839500D02*
X54887500Y-49839500D01*
X42226200Y-49926800D02*
X42226200Y-48726800D01*
X40476200Y-48726800D02*
X40476200Y-49926800D01*
X33152000Y-67016500D02*
X33152000Y-70016500D01*
X33152000Y-70016500D02*
X36952000Y-70016500D01*
X36952000Y-70016500D02*
X36952000Y-67016500D01*
X36952000Y-67016500D02*
X33152000Y-67016500D01*
X36532156Y-67416500D02*
G75*
G03X36532156Y-67416500I-320156J0D01*
G01*
X58483500Y-56832500D02*
X56705500Y-56832500D01*
X56705500Y-56832500D02*
X56705500Y-59880500D01*
X56705500Y-59880500D02*
X58483500Y-59880500D01*
X58483500Y-59880500D02*
X58483500Y-56832500D01*
D12*
X44807000Y-63793500D02*
X44557000Y-63793500D01*
X44807000Y-60793500D02*
X44557000Y-60793500D01*
X41807000Y-60793500D02*
X42057000Y-60793500D01*
X41807000Y-63793500D02*
X42057000Y-63793500D01*
X44707000Y-64043500D02*
G75*
G03X44707000Y-64043500I-50000J0D01*
G01*
X41807000Y-60793500D02*
X41807000Y-63793500D01*
X44807000Y-60793500D02*
X44807000Y-63793500D01*
D11*
X53467000Y-47815500D02*
X51689000Y-47815500D01*
X51689000Y-47815500D02*
X51689000Y-50863500D01*
X51689000Y-50863500D02*
X53467000Y-50863500D01*
X53467000Y-50863500D02*
X53467000Y-47815500D01*
X61455300Y-83947000D02*
X61455300Y-83820000D01*
X61455300Y-83820000D02*
X66789300Y-83820000D01*
X66789300Y-87630000D02*
X61455300Y-87630000D01*
X61455300Y-87630000D02*
X61455300Y-83947000D01*
X61455300Y-86233000D02*
X61963300Y-86233000D01*
X61963300Y-86233000D02*
X61963300Y-85217000D01*
X61963300Y-85217000D02*
X61455300Y-85217000D01*
X66789300Y-87630000D02*
X66789300Y-83820000D01*
X50734600Y-62339600D02*
X50734600Y-63339600D01*
X52084600Y-63339600D02*
X52084600Y-62339600D01*
X39892600Y-50893600D02*
X39892600Y-49893600D01*
X38542600Y-49893600D02*
X38542600Y-50893600D01*
X36425143Y-96607334D02*
X36472762Y-96559715D01*
X36520381Y-96416858D01*
X36520381Y-96321620D01*
X36472762Y-96178762D01*
X36377524Y-96083524D01*
X36282286Y-96035905D01*
X36091810Y-95988286D01*
X35948952Y-95988286D01*
X35758476Y-96035905D01*
X35663238Y-96083524D01*
X35568000Y-96178762D01*
X35520381Y-96321620D01*
X35520381Y-96416858D01*
X35568000Y-96559715D01*
X35615619Y-96607334D01*
X35853714Y-97464477D02*
X36520381Y-97464477D01*
X35472762Y-97226381D02*
X36187048Y-96988286D01*
X36187048Y-97607334D01*
X36298143Y-64635143D02*
X36345762Y-64587524D01*
X36393381Y-64444667D01*
X36393381Y-64349429D01*
X36345762Y-64206571D01*
X36250524Y-64111333D01*
X36155286Y-64063714D01*
X35964810Y-64016095D01*
X35821952Y-64016095D01*
X35631476Y-64063714D01*
X35536238Y-64111333D01*
X35441000Y-64206571D01*
X35393381Y-64349429D01*
X35393381Y-64444667D01*
X35441000Y-64587524D01*
X35488619Y-64635143D01*
X35488619Y-65016095D02*
X35441000Y-65063714D01*
X35393381Y-65158952D01*
X35393381Y-65397048D01*
X35441000Y-65492286D01*
X35488619Y-65539905D01*
X35583857Y-65587524D01*
X35679095Y-65587524D01*
X35821952Y-65539905D01*
X36393381Y-64968476D01*
X36393381Y-65587524D01*
X36393381Y-66539905D02*
X36393381Y-65968476D01*
X36393381Y-66254190D02*
X35393381Y-66254190D01*
X35536238Y-66158952D01*
X35631476Y-66063714D01*
X35679095Y-65968476D01*
X42171857Y-91035143D02*
X42219476Y-91082762D01*
X42362333Y-91130381D01*
X42457571Y-91130381D01*
X42600429Y-91082762D01*
X42695667Y-90987524D01*
X42743286Y-90892286D01*
X42790905Y-90701810D01*
X42790905Y-90558952D01*
X42743286Y-90368476D01*
X42695667Y-90273238D01*
X42600429Y-90178000D01*
X42457571Y-90130381D01*
X42362333Y-90130381D01*
X42219476Y-90178000D01*
X42171857Y-90225619D01*
X41790905Y-90225619D02*
X41743286Y-90178000D01*
X41648048Y-90130381D01*
X41409952Y-90130381D01*
X41314714Y-90178000D01*
X41267095Y-90225619D01*
X41219476Y-90320857D01*
X41219476Y-90416095D01*
X41267095Y-90558952D01*
X41838524Y-91130381D01*
X41219476Y-91130381D01*
X40314714Y-90130381D02*
X40790905Y-90130381D01*
X40838524Y-90606571D01*
X40790905Y-90558952D01*
X40695667Y-90511333D01*
X40457571Y-90511333D01*
X40362333Y-90558952D01*
X40314714Y-90606571D01*
X40267095Y-90701810D01*
X40267095Y-90939905D01*
X40314714Y-91035143D01*
X40362333Y-91082762D01*
X40457571Y-91130381D01*
X40695667Y-91130381D01*
X40790905Y-91082762D01*
X40838524Y-91035143D01*
X37471543Y-83431143D02*
X37519162Y-83383524D01*
X37566781Y-83240667D01*
X37566781Y-83145429D01*
X37519162Y-83002571D01*
X37423924Y-82907333D01*
X37328686Y-82859714D01*
X37138210Y-82812095D01*
X36995352Y-82812095D01*
X36804876Y-82859714D01*
X36709638Y-82907333D01*
X36614400Y-83002571D01*
X36566781Y-83145429D01*
X36566781Y-83240667D01*
X36614400Y-83383524D01*
X36662019Y-83431143D01*
X36662019Y-83812095D02*
X36614400Y-83859714D01*
X36566781Y-83954952D01*
X36566781Y-84193048D01*
X36614400Y-84288286D01*
X36662019Y-84335905D01*
X36757257Y-84383524D01*
X36852495Y-84383524D01*
X36995352Y-84335905D01*
X37566781Y-83764476D01*
X37566781Y-84383524D01*
X36566781Y-84716857D02*
X36566781Y-85383524D01*
X37566781Y-84954952D01*
X42298857Y-92559143D02*
X42346476Y-92606762D01*
X42489333Y-92654381D01*
X42584571Y-92654381D01*
X42727429Y-92606762D01*
X42822667Y-92511524D01*
X42870286Y-92416286D01*
X42917905Y-92225810D01*
X42917905Y-92082952D01*
X42870286Y-91892476D01*
X42822667Y-91797238D01*
X42727429Y-91702000D01*
X42584571Y-91654381D01*
X42489333Y-91654381D01*
X42346476Y-91702000D01*
X42298857Y-91749619D01*
X41917905Y-91749619D02*
X41870286Y-91702000D01*
X41775048Y-91654381D01*
X41536952Y-91654381D01*
X41441714Y-91702000D01*
X41394095Y-91749619D01*
X41346476Y-91844857D01*
X41346476Y-91940095D01*
X41394095Y-92082952D01*
X41965524Y-92654381D01*
X41346476Y-92654381D01*
X40775048Y-92082952D02*
X40870286Y-92035333D01*
X40917905Y-91987714D01*
X40965524Y-91892476D01*
X40965524Y-91844857D01*
X40917905Y-91749619D01*
X40870286Y-91702000D01*
X40775048Y-91654381D01*
X40584571Y-91654381D01*
X40489333Y-91702000D01*
X40441714Y-91749619D01*
X40394095Y-91844857D01*
X40394095Y-91892476D01*
X40441714Y-91987714D01*
X40489333Y-92035333D01*
X40584571Y-92082952D01*
X40775048Y-92082952D01*
X40870286Y-92130571D01*
X40917905Y-92178190D01*
X40965524Y-92273429D01*
X40965524Y-92463905D01*
X40917905Y-92559143D01*
X40870286Y-92606762D01*
X40775048Y-92654381D01*
X40584571Y-92654381D01*
X40489333Y-92606762D01*
X40441714Y-92559143D01*
X40394095Y-92463905D01*
X40394095Y-92273429D01*
X40441714Y-92178190D01*
X40489333Y-92130571D01*
X40584571Y-92082952D01*
X38076143Y-96512143D02*
X38123762Y-96464524D01*
X38171381Y-96321667D01*
X38171381Y-96226429D01*
X38123762Y-96083571D01*
X38028524Y-95988333D01*
X37933286Y-95940714D01*
X37742810Y-95893095D01*
X37599952Y-95893095D01*
X37409476Y-95940714D01*
X37314238Y-95988333D01*
X37219000Y-96083571D01*
X37171381Y-96226429D01*
X37171381Y-96321667D01*
X37219000Y-96464524D01*
X37266619Y-96512143D01*
X37266619Y-96893095D02*
X37219000Y-96940714D01*
X37171381Y-97035952D01*
X37171381Y-97274048D01*
X37219000Y-97369286D01*
X37266619Y-97416905D01*
X37361857Y-97464524D01*
X37457095Y-97464524D01*
X37599952Y-97416905D01*
X38171381Y-96845476D01*
X38171381Y-97464524D01*
X38171381Y-97940714D02*
X38171381Y-98131190D01*
X38123762Y-98226429D01*
X38076143Y-98274048D01*
X37933286Y-98369286D01*
X37742810Y-98416905D01*
X37361857Y-98416905D01*
X37266619Y-98369286D01*
X37219000Y-98321667D01*
X37171381Y-98226429D01*
X37171381Y-98035952D01*
X37219000Y-97940714D01*
X37266619Y-97893095D01*
X37361857Y-97845476D01*
X37599952Y-97845476D01*
X37695190Y-97893095D01*
X37742810Y-97940714D01*
X37790429Y-98035952D01*
X37790429Y-98226429D01*
X37742810Y-98321667D01*
X37695190Y-98369286D01*
X37599952Y-98416905D01*
X68460857Y-81637143D02*
X68508476Y-81684762D01*
X68651333Y-81732381D01*
X68746571Y-81732381D01*
X68889429Y-81684762D01*
X68984667Y-81589524D01*
X69032286Y-81494286D01*
X69079905Y-81303810D01*
X69079905Y-81160952D01*
X69032286Y-80970476D01*
X68984667Y-80875238D01*
X68889429Y-80780000D01*
X68746571Y-80732381D01*
X68651333Y-80732381D01*
X68508476Y-80780000D01*
X68460857Y-80827619D01*
X68127524Y-80732381D02*
X67508476Y-80732381D01*
X67841810Y-81113333D01*
X67698952Y-81113333D01*
X67603714Y-81160952D01*
X67556095Y-81208571D01*
X67508476Y-81303810D01*
X67508476Y-81541905D01*
X67556095Y-81637143D01*
X67603714Y-81684762D01*
X67698952Y-81732381D01*
X67984667Y-81732381D01*
X68079905Y-81684762D01*
X68127524Y-81637143D01*
X66889429Y-80732381D02*
X66794190Y-80732381D01*
X66698952Y-80780000D01*
X66651333Y-80827619D01*
X66603714Y-80922857D01*
X66556095Y-81113333D01*
X66556095Y-81351429D01*
X66603714Y-81541905D01*
X66651333Y-81637143D01*
X66698952Y-81684762D01*
X66794190Y-81732381D01*
X66889429Y-81732381D01*
X66984667Y-81684762D01*
X67032286Y-81637143D01*
X67079905Y-81541905D01*
X67127524Y-81351429D01*
X67127524Y-81113333D01*
X67079905Y-80922857D01*
X67032286Y-80827619D01*
X66984667Y-80780000D01*
X66889429Y-80732381D01*
X70080143Y-85082143D02*
X70127762Y-85034524D01*
X70175381Y-84891667D01*
X70175381Y-84796429D01*
X70127762Y-84653571D01*
X70032524Y-84558333D01*
X69937286Y-84510714D01*
X69746810Y-84463095D01*
X69603952Y-84463095D01*
X69413476Y-84510714D01*
X69318238Y-84558333D01*
X69223000Y-84653571D01*
X69175381Y-84796429D01*
X69175381Y-84891667D01*
X69223000Y-85034524D01*
X69270619Y-85082143D01*
X69175381Y-85415476D02*
X69175381Y-86034524D01*
X69556333Y-85701190D01*
X69556333Y-85844048D01*
X69603952Y-85939286D01*
X69651571Y-85986905D01*
X69746810Y-86034524D01*
X69984905Y-86034524D01*
X70080143Y-85986905D01*
X70127762Y-85939286D01*
X70175381Y-85844048D01*
X70175381Y-85558333D01*
X70127762Y-85463095D01*
X70080143Y-85415476D01*
X70175381Y-86986905D02*
X70175381Y-86415476D01*
X70175381Y-86701190D02*
X69175381Y-86701190D01*
X69318238Y-86605952D01*
X69413476Y-86510714D01*
X69461095Y-86415476D01*
X39123857Y-73255143D02*
X39171476Y-73302762D01*
X39314333Y-73350381D01*
X39409571Y-73350381D01*
X39552429Y-73302762D01*
X39647667Y-73207524D01*
X39695286Y-73112286D01*
X39742905Y-72921810D01*
X39742905Y-72778952D01*
X39695286Y-72588476D01*
X39647667Y-72493238D01*
X39552429Y-72398000D01*
X39409571Y-72350381D01*
X39314333Y-72350381D01*
X39171476Y-72398000D01*
X39123857Y-72445619D01*
X38790524Y-72350381D02*
X38171476Y-72350381D01*
X38504810Y-72731333D01*
X38361952Y-72731333D01*
X38266714Y-72778952D01*
X38219095Y-72826571D01*
X38171476Y-72921810D01*
X38171476Y-73159905D01*
X38219095Y-73255143D01*
X38266714Y-73302762D01*
X38361952Y-73350381D01*
X38647667Y-73350381D01*
X38742905Y-73302762D01*
X38790524Y-73255143D01*
X37790524Y-72445619D02*
X37742905Y-72398000D01*
X37647667Y-72350381D01*
X37409571Y-72350381D01*
X37314333Y-72398000D01*
X37266714Y-72445619D01*
X37219095Y-72540857D01*
X37219095Y-72636095D01*
X37266714Y-72778952D01*
X37838143Y-73350381D01*
X37219095Y-73350381D01*
X65031857Y-60936143D02*
X65079476Y-60983762D01*
X65222333Y-61031381D01*
X65317571Y-61031381D01*
X65460429Y-60983762D01*
X65555667Y-60888524D01*
X65603286Y-60793286D01*
X65650905Y-60602810D01*
X65650905Y-60459952D01*
X65603286Y-60269476D01*
X65555667Y-60174238D01*
X65460429Y-60079000D01*
X65317571Y-60031381D01*
X65222333Y-60031381D01*
X65079476Y-60079000D01*
X65031857Y-60126619D01*
X64698524Y-60031381D02*
X64079476Y-60031381D01*
X64412810Y-60412333D01*
X64269952Y-60412333D01*
X64174714Y-60459952D01*
X64127095Y-60507571D01*
X64079476Y-60602810D01*
X64079476Y-60840905D01*
X64127095Y-60936143D01*
X64174714Y-60983762D01*
X64269952Y-61031381D01*
X64555667Y-61031381D01*
X64650905Y-60983762D01*
X64698524Y-60936143D01*
X63746143Y-60031381D02*
X63127095Y-60031381D01*
X63460429Y-60412333D01*
X63317571Y-60412333D01*
X63222333Y-60459952D01*
X63174714Y-60507571D01*
X63127095Y-60602810D01*
X63127095Y-60840905D01*
X63174714Y-60936143D01*
X63222333Y-60983762D01*
X63317571Y-61031381D01*
X63603286Y-61031381D01*
X63698524Y-60983762D01*
X63746143Y-60936143D01*
X46712143Y-71366143D02*
X46759762Y-71318524D01*
X46807381Y-71175667D01*
X46807381Y-71080429D01*
X46759762Y-70937571D01*
X46664524Y-70842333D01*
X46569286Y-70794714D01*
X46378810Y-70747095D01*
X46235952Y-70747095D01*
X46045476Y-70794714D01*
X45950238Y-70842333D01*
X45855000Y-70937571D01*
X45807381Y-71080429D01*
X45807381Y-71175667D01*
X45855000Y-71318524D01*
X45902619Y-71366143D01*
X45807381Y-71699476D02*
X45807381Y-72318524D01*
X46188333Y-71985190D01*
X46188333Y-72128048D01*
X46235952Y-72223286D01*
X46283571Y-72270905D01*
X46378810Y-72318524D01*
X46616905Y-72318524D01*
X46712143Y-72270905D01*
X46759762Y-72223286D01*
X46807381Y-72128048D01*
X46807381Y-71842333D01*
X46759762Y-71747095D01*
X46712143Y-71699476D01*
X46140714Y-73175667D02*
X46807381Y-73175667D01*
X45759762Y-72937571D02*
X46474048Y-72699476D01*
X46474048Y-73318524D01*
X58173857Y-63857143D02*
X58221476Y-63904762D01*
X58364333Y-63952381D01*
X58459571Y-63952381D01*
X58602429Y-63904762D01*
X58697667Y-63809524D01*
X58745286Y-63714286D01*
X58792905Y-63523810D01*
X58792905Y-63380952D01*
X58745286Y-63190476D01*
X58697667Y-63095238D01*
X58602429Y-63000000D01*
X58459571Y-62952381D01*
X58364333Y-62952381D01*
X58221476Y-63000000D01*
X58173857Y-63047619D01*
X57840524Y-62952381D02*
X57221476Y-62952381D01*
X57554810Y-63333333D01*
X57411952Y-63333333D01*
X57316714Y-63380952D01*
X57269095Y-63428571D01*
X57221476Y-63523810D01*
X57221476Y-63761905D01*
X57269095Y-63857143D01*
X57316714Y-63904762D01*
X57411952Y-63952381D01*
X57697667Y-63952381D01*
X57792905Y-63904762D01*
X57840524Y-63857143D01*
X56650048Y-63380952D02*
X56745286Y-63333333D01*
X56792905Y-63285714D01*
X56840524Y-63190476D01*
X56840524Y-63142857D01*
X56792905Y-63047619D01*
X56745286Y-63000000D01*
X56650048Y-62952381D01*
X56459571Y-62952381D01*
X56364333Y-63000000D01*
X56316714Y-63047619D01*
X56269095Y-63142857D01*
X56269095Y-63190476D01*
X56316714Y-63285714D01*
X56364333Y-63333333D01*
X56459571Y-63380952D01*
X56650048Y-63380952D01*
X56745286Y-63428571D01*
X56792905Y-63476190D01*
X56840524Y-63571429D01*
X56840524Y-63761905D01*
X56792905Y-63857143D01*
X56745286Y-63904762D01*
X56650048Y-63952381D01*
X56459571Y-63952381D01*
X56364333Y-63904762D01*
X56316714Y-63857143D01*
X56269095Y-63761905D01*
X56269095Y-63571429D01*
X56316714Y-63476190D01*
X56364333Y-63428571D01*
X56459571Y-63380952D01*
X52427143Y-57269143D02*
X52474762Y-57221524D01*
X52522381Y-57078667D01*
X52522381Y-56983429D01*
X52474762Y-56840571D01*
X52379524Y-56745333D01*
X52284286Y-56697714D01*
X52093810Y-56650095D01*
X51950952Y-56650095D01*
X51760476Y-56697714D01*
X51665238Y-56745333D01*
X51570000Y-56840571D01*
X51522381Y-56983429D01*
X51522381Y-57078667D01*
X51570000Y-57221524D01*
X51617619Y-57269143D01*
X51522381Y-57602476D02*
X51522381Y-58221524D01*
X51903333Y-57888190D01*
X51903333Y-58031048D01*
X51950952Y-58126286D01*
X51998571Y-58173905D01*
X52093810Y-58221524D01*
X52331905Y-58221524D01*
X52427143Y-58173905D01*
X52474762Y-58126286D01*
X52522381Y-58031048D01*
X52522381Y-57745333D01*
X52474762Y-57650095D01*
X52427143Y-57602476D01*
X52522381Y-58697714D02*
X52522381Y-58888190D01*
X52474762Y-58983429D01*
X52427143Y-59031048D01*
X52284286Y-59126286D01*
X52093810Y-59173905D01*
X51712857Y-59173905D01*
X51617619Y-59126286D01*
X51570000Y-59078667D01*
X51522381Y-58983429D01*
X51522381Y-58792952D01*
X51570000Y-58697714D01*
X51617619Y-58650095D01*
X51712857Y-58602476D01*
X51950952Y-58602476D01*
X52046190Y-58650095D01*
X52093810Y-58697714D01*
X52141429Y-58792952D01*
X52141429Y-58983429D01*
X52093810Y-59078667D01*
X52046190Y-59126286D01*
X51950952Y-59173905D01*
D13*
X50019857Y-65931143D02*
X50056143Y-65967429D01*
X50165000Y-66003714D01*
X50237571Y-66003714D01*
X50346428Y-65967429D01*
X50419000Y-65894857D01*
X50455285Y-65822286D01*
X50491571Y-65677143D01*
X50491571Y-65568286D01*
X50455285Y-65423143D01*
X50419000Y-65350571D01*
X50346428Y-65278000D01*
X50237571Y-65241714D01*
X50165000Y-65241714D01*
X50056143Y-65278000D01*
X50019857Y-65314286D01*
X49366714Y-65495714D02*
X49366714Y-66003714D01*
X49548143Y-65205429D02*
X49729571Y-65749714D01*
X49257857Y-65749714D01*
X48822429Y-65241714D02*
X48749857Y-65241714D01*
X48677286Y-65278000D01*
X48641000Y-65314286D01*
X48604714Y-65386857D01*
X48568429Y-65532000D01*
X48568429Y-65713429D01*
X48604714Y-65858571D01*
X48641000Y-65931143D01*
X48677286Y-65967429D01*
X48749857Y-66003714D01*
X48822429Y-66003714D01*
X48895000Y-65967429D01*
X48931286Y-65931143D01*
X48967571Y-65858571D01*
X49003857Y-65713429D01*
X49003857Y-65532000D01*
X48967571Y-65386857D01*
X48931286Y-65314286D01*
X48895000Y-65278000D01*
X48822429Y-65241714D01*
D11*
X42902143Y-42156143D02*
X42949762Y-42108524D01*
X42997381Y-41965667D01*
X42997381Y-41870429D01*
X42949762Y-41727571D01*
X42854524Y-41632333D01*
X42759286Y-41584714D01*
X42568810Y-41537095D01*
X42425952Y-41537095D01*
X42235476Y-41584714D01*
X42140238Y-41632333D01*
X42045000Y-41727571D01*
X41997381Y-41870429D01*
X41997381Y-41965667D01*
X42045000Y-42108524D01*
X42092619Y-42156143D01*
X42330714Y-43013286D02*
X42997381Y-43013286D01*
X41949762Y-42775190D02*
X42664048Y-42537095D01*
X42664048Y-43156143D01*
X42997381Y-44060905D02*
X42997381Y-43489476D01*
X42997381Y-43775190D02*
X41997381Y-43775190D01*
X42140238Y-43679952D01*
X42235476Y-43584714D01*
X42283095Y-43489476D01*
D13*
X47352857Y-65804143D02*
X47389143Y-65840429D01*
X47498000Y-65876714D01*
X47570571Y-65876714D01*
X47679428Y-65840429D01*
X47752000Y-65767857D01*
X47788285Y-65695286D01*
X47824571Y-65550143D01*
X47824571Y-65441286D01*
X47788285Y-65296143D01*
X47752000Y-65223571D01*
X47679428Y-65151000D01*
X47570571Y-65114714D01*
X47498000Y-65114714D01*
X47389143Y-65151000D01*
X47352857Y-65187286D01*
X46699714Y-65368714D02*
X46699714Y-65876714D01*
X46881143Y-65078429D02*
X47062571Y-65622714D01*
X46590857Y-65622714D01*
X46336857Y-65187286D02*
X46300571Y-65151000D01*
X46228000Y-65114714D01*
X46046571Y-65114714D01*
X45974000Y-65151000D01*
X45937714Y-65187286D01*
X45901429Y-65259857D01*
X45901429Y-65332429D01*
X45937714Y-65441286D01*
X46373143Y-65876714D01*
X45901429Y-65876714D01*
D11*
X32615143Y-48125143D02*
X32662762Y-48077524D01*
X32710381Y-47934667D01*
X32710381Y-47839429D01*
X32662762Y-47696571D01*
X32567524Y-47601333D01*
X32472286Y-47553714D01*
X32281810Y-47506095D01*
X32138952Y-47506095D01*
X31948476Y-47553714D01*
X31853238Y-47601333D01*
X31758000Y-47696571D01*
X31710381Y-47839429D01*
X31710381Y-47934667D01*
X31758000Y-48077524D01*
X31805619Y-48125143D01*
X32043714Y-48982286D02*
X32710381Y-48982286D01*
X31662762Y-48744190D02*
X32377048Y-48506095D01*
X32377048Y-49125143D01*
X31710381Y-49410857D02*
X31710381Y-50029905D01*
X32091333Y-49696571D01*
X32091333Y-49839429D01*
X32138952Y-49934667D01*
X32186571Y-49982286D01*
X32281810Y-50029905D01*
X32519905Y-50029905D01*
X32615143Y-49982286D01*
X32662762Y-49934667D01*
X32710381Y-49839429D01*
X32710381Y-49553714D01*
X32662762Y-49458476D01*
X32615143Y-49410857D01*
X34012143Y-48125143D02*
X34059762Y-48077524D01*
X34107381Y-47934667D01*
X34107381Y-47839429D01*
X34059762Y-47696571D01*
X33964524Y-47601333D01*
X33869286Y-47553714D01*
X33678810Y-47506095D01*
X33535952Y-47506095D01*
X33345476Y-47553714D01*
X33250238Y-47601333D01*
X33155000Y-47696571D01*
X33107381Y-47839429D01*
X33107381Y-47934667D01*
X33155000Y-48077524D01*
X33202619Y-48125143D01*
X33440714Y-48982286D02*
X34107381Y-48982286D01*
X33059762Y-48744190D02*
X33774048Y-48506095D01*
X33774048Y-49125143D01*
X33440714Y-49934667D02*
X34107381Y-49934667D01*
X33059762Y-49696571D02*
X33774048Y-49458476D01*
X33774048Y-50077524D01*
X53220857Y-54713143D02*
X53268476Y-54760762D01*
X53411333Y-54808381D01*
X53506571Y-54808381D01*
X53649429Y-54760762D01*
X53744667Y-54665524D01*
X53792286Y-54570286D01*
X53839905Y-54379810D01*
X53839905Y-54236952D01*
X53792286Y-54046476D01*
X53744667Y-53951238D01*
X53649429Y-53856000D01*
X53506571Y-53808381D01*
X53411333Y-53808381D01*
X53268476Y-53856000D01*
X53220857Y-53903619D01*
X52363714Y-54141714D02*
X52363714Y-54808381D01*
X52601810Y-53760762D02*
X52839905Y-54475048D01*
X52220857Y-54475048D01*
X51697048Y-54236952D02*
X51792286Y-54189333D01*
X51839905Y-54141714D01*
X51887524Y-54046476D01*
X51887524Y-53998857D01*
X51839905Y-53903619D01*
X51792286Y-53856000D01*
X51697048Y-53808381D01*
X51506571Y-53808381D01*
X51411333Y-53856000D01*
X51363714Y-53903619D01*
X51316095Y-53998857D01*
X51316095Y-54046476D01*
X51363714Y-54141714D01*
X51411333Y-54189333D01*
X51506571Y-54236952D01*
X51697048Y-54236952D01*
X51792286Y-54284571D01*
X51839905Y-54332190D01*
X51887524Y-54427429D01*
X51887524Y-54617905D01*
X51839905Y-54713143D01*
X51792286Y-54760762D01*
X51697048Y-54808381D01*
X51506571Y-54808381D01*
X51411333Y-54760762D01*
X51363714Y-54713143D01*
X51316095Y-54617905D01*
X51316095Y-54427429D01*
X51363714Y-54332190D01*
X51411333Y-54284571D01*
X51506571Y-54236952D01*
X44299143Y-44950143D02*
X44346762Y-44902524D01*
X44394381Y-44759667D01*
X44394381Y-44664429D01*
X44346762Y-44521571D01*
X44251524Y-44426333D01*
X44156286Y-44378714D01*
X43965810Y-44331095D01*
X43822952Y-44331095D01*
X43632476Y-44378714D01*
X43537238Y-44426333D01*
X43442000Y-44521571D01*
X43394381Y-44664429D01*
X43394381Y-44759667D01*
X43442000Y-44902524D01*
X43489619Y-44950143D01*
X43727714Y-45807286D02*
X44394381Y-45807286D01*
X43346762Y-45569190D02*
X44061048Y-45331095D01*
X44061048Y-45950143D01*
X44394381Y-46378714D02*
X44394381Y-46569190D01*
X44346762Y-46664429D01*
X44299143Y-46712048D01*
X44156286Y-46807286D01*
X43965810Y-46854905D01*
X43584857Y-46854905D01*
X43489619Y-46807286D01*
X43442000Y-46759667D01*
X43394381Y-46664429D01*
X43394381Y-46473952D01*
X43442000Y-46378714D01*
X43489619Y-46331095D01*
X43584857Y-46283476D01*
X43822952Y-46283476D01*
X43918190Y-46331095D01*
X43965810Y-46378714D01*
X44013429Y-46473952D01*
X44013429Y-46664429D01*
X43965810Y-46759667D01*
X43918190Y-46807286D01*
X43822952Y-46854905D01*
X42902143Y-38600143D02*
X42949762Y-38552524D01*
X42997381Y-38409667D01*
X42997381Y-38314429D01*
X42949762Y-38171571D01*
X42854524Y-38076333D01*
X42759286Y-38028714D01*
X42568810Y-37981095D01*
X42425952Y-37981095D01*
X42235476Y-38028714D01*
X42140238Y-38076333D01*
X42045000Y-38171571D01*
X41997381Y-38314429D01*
X41997381Y-38409667D01*
X42045000Y-38552524D01*
X42092619Y-38600143D01*
X41997381Y-39504905D02*
X41997381Y-39028714D01*
X42473571Y-38981095D01*
X42425952Y-39028714D01*
X42378333Y-39123952D01*
X42378333Y-39362048D01*
X42425952Y-39457286D01*
X42473571Y-39504905D01*
X42568810Y-39552524D01*
X42806905Y-39552524D01*
X42902143Y-39504905D01*
X42949762Y-39457286D01*
X42997381Y-39362048D01*
X42997381Y-39123952D01*
X42949762Y-39028714D01*
X42902143Y-38981095D01*
X41997381Y-40171571D02*
X41997381Y-40266810D01*
X42045000Y-40362048D01*
X42092619Y-40409667D01*
X42187857Y-40457286D01*
X42378333Y-40504905D01*
X42616429Y-40504905D01*
X42806905Y-40457286D01*
X42902143Y-40409667D01*
X42949762Y-40362048D01*
X42997381Y-40266810D01*
X42997381Y-40171571D01*
X42949762Y-40076333D01*
X42902143Y-40028714D01*
X42806905Y-39981095D01*
X42616429Y-39933476D01*
X42378333Y-39933476D01*
X42187857Y-39981095D01*
X42092619Y-40028714D01*
X42045000Y-40076333D01*
X41997381Y-40171571D01*
X41378143Y-69969143D02*
X41425762Y-69921524D01*
X41473381Y-69778667D01*
X41473381Y-69683429D01*
X41425762Y-69540571D01*
X41330524Y-69445333D01*
X41235286Y-69397714D01*
X41044810Y-69350095D01*
X40901952Y-69350095D01*
X40711476Y-69397714D01*
X40616238Y-69445333D01*
X40521000Y-69540571D01*
X40473381Y-69683429D01*
X40473381Y-69778667D01*
X40521000Y-69921524D01*
X40568619Y-69969143D01*
X40473381Y-70873905D02*
X40473381Y-70397714D01*
X40949571Y-70350095D01*
X40901952Y-70397714D01*
X40854333Y-70492952D01*
X40854333Y-70731048D01*
X40901952Y-70826286D01*
X40949571Y-70873905D01*
X41044810Y-70921524D01*
X41282905Y-70921524D01*
X41378143Y-70873905D01*
X41425762Y-70826286D01*
X41473381Y-70731048D01*
X41473381Y-70492952D01*
X41425762Y-70397714D01*
X41378143Y-70350095D01*
X41473381Y-71873905D02*
X41473381Y-71302476D01*
X41473381Y-71588190D02*
X40473381Y-71588190D01*
X40616238Y-71492952D01*
X40711476Y-71397714D01*
X40759095Y-71302476D01*
X60078857Y-51919143D02*
X60126476Y-51966762D01*
X60269333Y-52014381D01*
X60364571Y-52014381D01*
X60507429Y-51966762D01*
X60602667Y-51871524D01*
X60650286Y-51776286D01*
X60697905Y-51585810D01*
X60697905Y-51442952D01*
X60650286Y-51252476D01*
X60602667Y-51157238D01*
X60507429Y-51062000D01*
X60364571Y-51014381D01*
X60269333Y-51014381D01*
X60126476Y-51062000D01*
X60078857Y-51109619D01*
X59174095Y-51014381D02*
X59650286Y-51014381D01*
X59697905Y-51490571D01*
X59650286Y-51442952D01*
X59555048Y-51395333D01*
X59316952Y-51395333D01*
X59221714Y-51442952D01*
X59174095Y-51490571D01*
X59126476Y-51585810D01*
X59126476Y-51823905D01*
X59174095Y-51919143D01*
X59221714Y-51966762D01*
X59316952Y-52014381D01*
X59555048Y-52014381D01*
X59650286Y-51966762D01*
X59697905Y-51919143D01*
X58745524Y-51109619D02*
X58697905Y-51062000D01*
X58602667Y-51014381D01*
X58364571Y-51014381D01*
X58269333Y-51062000D01*
X58221714Y-51109619D01*
X58174095Y-51204857D01*
X58174095Y-51300095D01*
X58221714Y-51442952D01*
X58793143Y-52014381D01*
X58174095Y-52014381D01*
D13*
X36938857Y-61867143D02*
X36975143Y-61903429D01*
X37084000Y-61939714D01*
X37156571Y-61939714D01*
X37265428Y-61903429D01*
X37338000Y-61830857D01*
X37374285Y-61758286D01*
X37410571Y-61613143D01*
X37410571Y-61504286D01*
X37374285Y-61359143D01*
X37338000Y-61286571D01*
X37265428Y-61214000D01*
X37156571Y-61177714D01*
X37084000Y-61177714D01*
X36975143Y-61214000D01*
X36938857Y-61250286D01*
X36249428Y-61177714D02*
X36612285Y-61177714D01*
X36648571Y-61540571D01*
X36612285Y-61504286D01*
X36539714Y-61468000D01*
X36358285Y-61468000D01*
X36285714Y-61504286D01*
X36249428Y-61540571D01*
X36213143Y-61613143D01*
X36213143Y-61794571D01*
X36249428Y-61867143D01*
X36285714Y-61903429D01*
X36358285Y-61939714D01*
X36539714Y-61939714D01*
X36612285Y-61903429D01*
X36648571Y-61867143D01*
X35959143Y-61177714D02*
X35487429Y-61177714D01*
X35741429Y-61468000D01*
X35632571Y-61468000D01*
X35560000Y-61504286D01*
X35523714Y-61540571D01*
X35487429Y-61613143D01*
X35487429Y-61794571D01*
X35523714Y-61867143D01*
X35560000Y-61903429D01*
X35632571Y-61939714D01*
X35850286Y-61939714D01*
X35922857Y-61903429D01*
X35959143Y-61867143D01*
X51743428Y-60796714D02*
X51743428Y-60034714D01*
X51562000Y-60034714D01*
X51453143Y-60071000D01*
X51380571Y-60143571D01*
X51344286Y-60216143D01*
X51308000Y-60361286D01*
X51308000Y-60470143D01*
X51344286Y-60615286D01*
X51380571Y-60687857D01*
X51453143Y-60760429D01*
X51562000Y-60796714D01*
X51743428Y-60796714D01*
X50582286Y-60796714D02*
X51017714Y-60796714D01*
X50800000Y-60796714D02*
X50800000Y-60034714D01*
X50872571Y-60143571D01*
X50945143Y-60216143D01*
X51017714Y-60252429D01*
X36757428Y-63209714D02*
X36757428Y-62447714D01*
X36576000Y-62447714D01*
X36467143Y-62484000D01*
X36394571Y-62556571D01*
X36358286Y-62629143D01*
X36322000Y-62774286D01*
X36322000Y-62883143D01*
X36358286Y-63028286D01*
X36394571Y-63100857D01*
X36467143Y-63173429D01*
X36576000Y-63209714D01*
X36757428Y-63209714D01*
X36031714Y-62520286D02*
X35995428Y-62484000D01*
X35922857Y-62447714D01*
X35741428Y-62447714D01*
X35668857Y-62484000D01*
X35632571Y-62520286D01*
X35596286Y-62592857D01*
X35596286Y-62665429D01*
X35632571Y-62774286D01*
X36068000Y-63209714D01*
X35596286Y-63209714D01*
D14*
X71322333Y-58163667D02*
X71322333Y-58663667D01*
X71355667Y-58763667D01*
X71422333Y-58830333D01*
X71522333Y-58863667D01*
X71589000Y-58863667D01*
X70989000Y-58863667D02*
X70989000Y-58163667D01*
X70722334Y-58163667D01*
X70655667Y-58197000D01*
X70622334Y-58230333D01*
X70589000Y-58297000D01*
X70589000Y-58397000D01*
X70622334Y-58463667D01*
X70655667Y-58497000D01*
X70722334Y-58530333D01*
X70989000Y-58530333D01*
X70355667Y-58163667D02*
X69922334Y-58163667D01*
X70155667Y-58430333D01*
X70055667Y-58430333D01*
X69989000Y-58463667D01*
X69955667Y-58497000D01*
X69922334Y-58563667D01*
X69922334Y-58730333D01*
X69955667Y-58797000D01*
X69989000Y-58830333D01*
X70055667Y-58863667D01*
X70255667Y-58863667D01*
X70322334Y-58830333D01*
X70355667Y-58797000D01*
X71322333Y-59306667D02*
X71322333Y-59806667D01*
X71355667Y-59906667D01*
X71422333Y-59973333D01*
X71522333Y-60006667D01*
X71589000Y-60006667D01*
X70989000Y-60006667D02*
X70989000Y-59306667D01*
X70722334Y-59306667D01*
X70655667Y-59340000D01*
X70622334Y-59373333D01*
X70589000Y-59440000D01*
X70589000Y-59540000D01*
X70622334Y-59606667D01*
X70655667Y-59640000D01*
X70722334Y-59673333D01*
X70989000Y-59673333D01*
X69955667Y-59306667D02*
X70289000Y-59306667D01*
X70322334Y-59640000D01*
X70289000Y-59606667D01*
X70222334Y-59573333D01*
X70055667Y-59573333D01*
X69989000Y-59606667D01*
X69955667Y-59640000D01*
X69922334Y-59706667D01*
X69922334Y-59873333D01*
X69955667Y-59940000D01*
X69989000Y-59973333D01*
X70055667Y-60006667D01*
X70222334Y-60006667D01*
X70289000Y-59973333D01*
X70322334Y-59940000D01*
X71322333Y-61592667D02*
X71322333Y-62092667D01*
X71355667Y-62192667D01*
X71422333Y-62259333D01*
X71522333Y-62292667D01*
X71589000Y-62292667D01*
X70989000Y-62292667D02*
X70989000Y-61592667D01*
X70722334Y-61592667D01*
X70655667Y-61626000D01*
X70622334Y-61659333D01*
X70589000Y-61726000D01*
X70589000Y-61826000D01*
X70622334Y-61892667D01*
X70655667Y-61926000D01*
X70722334Y-61959333D01*
X70989000Y-61959333D01*
X70355667Y-61592667D02*
X69889000Y-61592667D01*
X70189000Y-62292667D01*
X71322333Y-60449667D02*
X71322333Y-60949667D01*
X71355667Y-61049667D01*
X71422333Y-61116333D01*
X71522333Y-61149667D01*
X71589000Y-61149667D01*
X70989000Y-61149667D02*
X70989000Y-60449667D01*
X70722334Y-60449667D01*
X70655667Y-60483000D01*
X70622334Y-60516333D01*
X70589000Y-60583000D01*
X70589000Y-60683000D01*
X70622334Y-60749667D01*
X70655667Y-60783000D01*
X70722334Y-60816333D01*
X70989000Y-60816333D01*
X70255667Y-61149667D02*
X70122334Y-61149667D01*
X70055667Y-61116333D01*
X70022334Y-61083000D01*
X69955667Y-60983000D01*
X69922334Y-60849667D01*
X69922334Y-60583000D01*
X69955667Y-60516333D01*
X69989000Y-60483000D01*
X70055667Y-60449667D01*
X70189000Y-60449667D01*
X70255667Y-60483000D01*
X70289000Y-60516333D01*
X70322334Y-60583000D01*
X70322334Y-60749667D01*
X70289000Y-60816333D01*
X70255667Y-60849667D01*
X70189000Y-60883000D01*
X70055667Y-60883000D01*
X69989000Y-60849667D01*
X69955667Y-60816333D01*
X69922334Y-60749667D01*
X71274666Y-57020667D02*
X71274666Y-57520667D01*
X71308000Y-57620667D01*
X71374666Y-57687333D01*
X71474666Y-57720667D01*
X71541333Y-57720667D01*
X70941333Y-57720667D02*
X70941333Y-57020667D01*
X70674667Y-57020667D01*
X70608000Y-57054000D01*
X70574667Y-57087333D01*
X70541333Y-57154000D01*
X70541333Y-57254000D01*
X70574667Y-57320667D01*
X70608000Y-57354000D01*
X70674667Y-57387333D01*
X70941333Y-57387333D01*
X69874667Y-57720667D02*
X70274667Y-57720667D01*
X70074667Y-57720667D02*
X70074667Y-57020667D01*
X70141333Y-57120667D01*
X70208000Y-57187333D01*
X70274667Y-57220667D01*
X69274666Y-57254000D02*
X69274666Y-57720667D01*
X69441333Y-56987333D02*
X69608000Y-57487333D01*
X69174666Y-57487333D01*
D15*
X47751999Y-52414714D02*
X48114856Y-52414714D01*
X48114856Y-51652714D01*
X47534285Y-51725286D02*
X47497999Y-51689000D01*
X47425428Y-51652714D01*
X47243999Y-51652714D01*
X47171428Y-51689000D01*
X47135142Y-51725286D01*
X47098857Y-51797857D01*
X47098857Y-51870429D01*
X47135142Y-51979286D01*
X47570571Y-52414714D01*
X47098857Y-52414714D01*
X35813999Y-51779714D02*
X36176856Y-51779714D01*
X36176856Y-51017714D01*
X35233428Y-51271714D02*
X35233428Y-51779714D01*
X35414857Y-50981429D02*
X35596285Y-51525714D01*
X35124571Y-51525714D01*
D11*
X67405238Y-73826619D02*
X67500476Y-73779000D01*
X67595714Y-73683762D01*
X67738571Y-73540905D01*
X67833810Y-73493286D01*
X67929048Y-73493286D01*
X67881429Y-73731381D02*
X67976667Y-73683762D01*
X68071905Y-73588524D01*
X68119524Y-73398048D01*
X68119524Y-73064714D01*
X68071905Y-72874238D01*
X67976667Y-72779000D01*
X67881429Y-72731381D01*
X67690952Y-72731381D01*
X67595714Y-72779000D01*
X67500476Y-72874238D01*
X67452857Y-73064714D01*
X67452857Y-73398048D01*
X67500476Y-73588524D01*
X67595714Y-73683762D01*
X67690952Y-73731381D01*
X67881429Y-73731381D01*
X66500476Y-73731381D02*
X67071905Y-73731381D01*
X66786191Y-73731381D02*
X66786191Y-72731381D01*
X66881429Y-72874238D01*
X66976667Y-72969476D01*
X67071905Y-73017095D01*
X34869381Y-60793334D02*
X34393190Y-60460000D01*
X34869381Y-60221905D02*
X33869381Y-60221905D01*
X33869381Y-60602858D01*
X33917000Y-60698096D01*
X33964619Y-60745715D01*
X34059857Y-60793334D01*
X34202714Y-60793334D01*
X34297952Y-60745715D01*
X34345571Y-60698096D01*
X34393190Y-60602858D01*
X34393190Y-60221905D01*
X34297952Y-61364762D02*
X34250333Y-61269524D01*
X34202714Y-61221905D01*
X34107476Y-61174286D01*
X34059857Y-61174286D01*
X33964619Y-61221905D01*
X33917000Y-61269524D01*
X33869381Y-61364762D01*
X33869381Y-61555239D01*
X33917000Y-61650477D01*
X33964619Y-61698096D01*
X34059857Y-61745715D01*
X34107476Y-61745715D01*
X34202714Y-61698096D01*
X34250333Y-61650477D01*
X34297952Y-61555239D01*
X34297952Y-61364762D01*
X34345571Y-61269524D01*
X34393190Y-61221905D01*
X34488429Y-61174286D01*
X34678905Y-61174286D01*
X34774143Y-61221905D01*
X34821762Y-61269524D01*
X34869381Y-61364762D01*
X34869381Y-61555239D01*
X34821762Y-61650477D01*
X34774143Y-61698096D01*
X34678905Y-61745715D01*
X34488429Y-61745715D01*
X34393190Y-61698096D01*
X34345571Y-61650477D01*
X34297952Y-61555239D01*
X67698857Y-66619381D02*
X68032191Y-66143190D01*
X68270286Y-66619381D02*
X68270286Y-65619381D01*
X67889333Y-65619381D01*
X67794095Y-65667000D01*
X67746476Y-65714619D01*
X67698857Y-65809857D01*
X67698857Y-65952714D01*
X67746476Y-66047952D01*
X67794095Y-66095571D01*
X67889333Y-66143190D01*
X68270286Y-66143190D01*
X66746476Y-66619381D02*
X67317905Y-66619381D01*
X67032191Y-66619381D02*
X67032191Y-65619381D01*
X67127429Y-65762238D01*
X67222667Y-65857476D01*
X67317905Y-65905095D01*
X66127429Y-65619381D02*
X66032190Y-65619381D01*
X65936952Y-65667000D01*
X65889333Y-65714619D01*
X65841714Y-65809857D01*
X65794095Y-66000333D01*
X65794095Y-66238429D01*
X65841714Y-66428905D01*
X65889333Y-66524143D01*
X65936952Y-66571762D01*
X66032190Y-66619381D01*
X66127429Y-66619381D01*
X66222667Y-66571762D01*
X66270286Y-66524143D01*
X66317905Y-66428905D01*
X66365524Y-66238429D01*
X66365524Y-66000333D01*
X66317905Y-65809857D01*
X66270286Y-65714619D01*
X66222667Y-65667000D01*
X66127429Y-65619381D01*
X64968381Y-72890143D02*
X64492190Y-72556809D01*
X64968381Y-72318714D02*
X63968381Y-72318714D01*
X63968381Y-72699667D01*
X64016000Y-72794905D01*
X64063619Y-72842524D01*
X64158857Y-72890143D01*
X64301714Y-72890143D01*
X64396952Y-72842524D01*
X64444571Y-72794905D01*
X64492190Y-72699667D01*
X64492190Y-72318714D01*
X64968381Y-73842524D02*
X64968381Y-73271095D01*
X64968381Y-73556809D02*
X63968381Y-73556809D01*
X64111238Y-73461571D01*
X64206476Y-73366333D01*
X64254095Y-73271095D01*
X64968381Y-74794905D02*
X64968381Y-74223476D01*
X64968381Y-74509190D02*
X63968381Y-74509190D01*
X64111238Y-74413952D01*
X64206476Y-74318714D01*
X64254095Y-74223476D01*
X68206857Y-91003381D02*
X68540191Y-90527190D01*
X68778286Y-91003381D02*
X68778286Y-90003381D01*
X68397333Y-90003381D01*
X68302095Y-90051000D01*
X68254476Y-90098619D01*
X68206857Y-90193857D01*
X68206857Y-90336714D01*
X68254476Y-90431952D01*
X68302095Y-90479571D01*
X68397333Y-90527190D01*
X68778286Y-90527190D01*
X67254476Y-91003381D02*
X67825905Y-91003381D01*
X67540191Y-91003381D02*
X67540191Y-90003381D01*
X67635429Y-90146238D01*
X67730667Y-90241476D01*
X67825905Y-90289095D01*
X66397333Y-90336714D02*
X66397333Y-91003381D01*
X66635429Y-89955762D02*
X66873524Y-90670048D01*
X66254476Y-90670048D01*
X32837381Y-74033143D02*
X32361190Y-73699809D01*
X32837381Y-73461714D02*
X31837381Y-73461714D01*
X31837381Y-73842667D01*
X31885000Y-73937905D01*
X31932619Y-73985524D01*
X32027857Y-74033143D01*
X32170714Y-74033143D01*
X32265952Y-73985524D01*
X32313571Y-73937905D01*
X32361190Y-73842667D01*
X32361190Y-73461714D01*
X32837381Y-74985524D02*
X32837381Y-74414095D01*
X32837381Y-74699809D02*
X31837381Y-74699809D01*
X31980238Y-74604571D01*
X32075476Y-74509333D01*
X32123095Y-74414095D01*
X31837381Y-75890286D02*
X31837381Y-75414095D01*
X32313571Y-75366476D01*
X32265952Y-75414095D01*
X32218333Y-75509333D01*
X32218333Y-75747429D01*
X32265952Y-75842667D01*
X32313571Y-75890286D01*
X32408810Y-75937905D01*
X32646905Y-75937905D01*
X32742143Y-75890286D01*
X32789762Y-75842667D01*
X32837381Y-75747429D01*
X32837381Y-75509333D01*
X32789762Y-75414095D01*
X32742143Y-75366476D01*
X35694857Y-73350381D02*
X36028191Y-72874190D01*
X36266286Y-73350381D02*
X36266286Y-72350381D01*
X35885333Y-72350381D01*
X35790095Y-72398000D01*
X35742476Y-72445619D01*
X35694857Y-72540857D01*
X35694857Y-72683714D01*
X35742476Y-72778952D01*
X35790095Y-72826571D01*
X35885333Y-72874190D01*
X36266286Y-72874190D01*
X34742476Y-73350381D02*
X35313905Y-73350381D01*
X35028191Y-73350381D02*
X35028191Y-72350381D01*
X35123429Y-72493238D01*
X35218667Y-72588476D01*
X35313905Y-72636095D01*
X33885333Y-72350381D02*
X34075810Y-72350381D01*
X34171048Y-72398000D01*
X34218667Y-72445619D01*
X34313905Y-72588476D01*
X34361524Y-72778952D01*
X34361524Y-73159905D01*
X34313905Y-73255143D01*
X34266286Y-73302762D01*
X34171048Y-73350381D01*
X33980571Y-73350381D01*
X33885333Y-73302762D01*
X33837714Y-73255143D01*
X33790095Y-73159905D01*
X33790095Y-72921810D01*
X33837714Y-72826571D01*
X33885333Y-72778952D01*
X33980571Y-72731333D01*
X34171048Y-72731333D01*
X34266286Y-72778952D01*
X34313905Y-72826571D01*
X34361524Y-72921810D01*
X68460857Y-79827381D02*
X68794191Y-79351190D01*
X69032286Y-79827381D02*
X69032286Y-78827381D01*
X68651333Y-78827381D01*
X68556095Y-78875000D01*
X68508476Y-78922619D01*
X68460857Y-79017857D01*
X68460857Y-79160714D01*
X68508476Y-79255952D01*
X68556095Y-79303571D01*
X68651333Y-79351190D01*
X69032286Y-79351190D01*
X67508476Y-79827381D02*
X68079905Y-79827381D01*
X67794191Y-79827381D02*
X67794191Y-78827381D01*
X67889429Y-78970238D01*
X67984667Y-79065476D01*
X68079905Y-79113095D01*
X67175143Y-78827381D02*
X66508476Y-78827381D01*
X66937048Y-79827381D01*
X53919381Y-65270143D02*
X53443190Y-64936809D01*
X53919381Y-64698714D02*
X52919381Y-64698714D01*
X52919381Y-65079667D01*
X52967000Y-65174905D01*
X53014619Y-65222524D01*
X53109857Y-65270143D01*
X53252714Y-65270143D01*
X53347952Y-65222524D01*
X53395571Y-65174905D01*
X53443190Y-65079667D01*
X53443190Y-64698714D01*
X53919381Y-66222524D02*
X53919381Y-65651095D01*
X53919381Y-65936809D02*
X52919381Y-65936809D01*
X53062238Y-65841571D01*
X53157476Y-65746333D01*
X53205095Y-65651095D01*
X53919381Y-66698714D02*
X53919381Y-66889190D01*
X53871762Y-66984429D01*
X53824143Y-67032048D01*
X53681286Y-67127286D01*
X53490810Y-67174905D01*
X53109857Y-67174905D01*
X53014619Y-67127286D01*
X52967000Y-67079667D01*
X52919381Y-66984429D01*
X52919381Y-66793952D01*
X52967000Y-66698714D01*
X53014619Y-66651095D01*
X53109857Y-66603476D01*
X53347952Y-66603476D01*
X53443190Y-66651095D01*
X53490810Y-66698714D01*
X53538429Y-66793952D01*
X53538429Y-66984429D01*
X53490810Y-67079667D01*
X53443190Y-67127286D01*
X53347952Y-67174905D01*
X61158381Y-54729143D02*
X60682190Y-54395809D01*
X61158381Y-54157714D02*
X60158381Y-54157714D01*
X60158381Y-54538667D01*
X60206000Y-54633905D01*
X60253619Y-54681524D01*
X60348857Y-54729143D01*
X60491714Y-54729143D01*
X60586952Y-54681524D01*
X60634571Y-54633905D01*
X60682190Y-54538667D01*
X60682190Y-54157714D01*
X60253619Y-55110095D02*
X60206000Y-55157714D01*
X60158381Y-55252952D01*
X60158381Y-55491048D01*
X60206000Y-55586286D01*
X60253619Y-55633905D01*
X60348857Y-55681524D01*
X60444095Y-55681524D01*
X60586952Y-55633905D01*
X61158381Y-55062476D01*
X61158381Y-55681524D01*
X60158381Y-56300571D02*
X60158381Y-56395810D01*
X60206000Y-56491048D01*
X60253619Y-56538667D01*
X60348857Y-56586286D01*
X60539333Y-56633905D01*
X60777429Y-56633905D01*
X60967905Y-56586286D01*
X61063143Y-56538667D01*
X61110762Y-56491048D01*
X61158381Y-56395810D01*
X61158381Y-56300571D01*
X61110762Y-56205333D01*
X61063143Y-56157714D01*
X60967905Y-56110095D01*
X60777429Y-56062476D01*
X60539333Y-56062476D01*
X60348857Y-56110095D01*
X60253619Y-56157714D01*
X60206000Y-56205333D01*
X60158381Y-56300571D01*
X45156381Y-71112143D02*
X44680190Y-70778809D01*
X45156381Y-70540714D02*
X44156381Y-70540714D01*
X44156381Y-70921667D01*
X44204000Y-71016905D01*
X44251619Y-71064524D01*
X44346857Y-71112143D01*
X44489714Y-71112143D01*
X44584952Y-71064524D01*
X44632571Y-71016905D01*
X44680190Y-70921667D01*
X44680190Y-70540714D01*
X44251619Y-71493095D02*
X44204000Y-71540714D01*
X44156381Y-71635952D01*
X44156381Y-71874048D01*
X44204000Y-71969286D01*
X44251619Y-72016905D01*
X44346857Y-72064524D01*
X44442095Y-72064524D01*
X44584952Y-72016905D01*
X45156381Y-71445476D01*
X45156381Y-72064524D01*
X45156381Y-73016905D02*
X45156381Y-72445476D01*
X45156381Y-72731190D02*
X44156381Y-72731190D01*
X44299238Y-72635952D01*
X44394476Y-72540714D01*
X44442095Y-72445476D01*
X62809381Y-54729143D02*
X62333190Y-54395809D01*
X62809381Y-54157714D02*
X61809381Y-54157714D01*
X61809381Y-54538667D01*
X61857000Y-54633905D01*
X61904619Y-54681524D01*
X61999857Y-54729143D01*
X62142714Y-54729143D01*
X62237952Y-54681524D01*
X62285571Y-54633905D01*
X62333190Y-54538667D01*
X62333190Y-54157714D01*
X61904619Y-55110095D02*
X61857000Y-55157714D01*
X61809381Y-55252952D01*
X61809381Y-55491048D01*
X61857000Y-55586286D01*
X61904619Y-55633905D01*
X61999857Y-55681524D01*
X62095095Y-55681524D01*
X62237952Y-55633905D01*
X62809381Y-55062476D01*
X62809381Y-55681524D01*
X61904619Y-56062476D02*
X61857000Y-56110095D01*
X61809381Y-56205333D01*
X61809381Y-56443429D01*
X61857000Y-56538667D01*
X61904619Y-56586286D01*
X61999857Y-56633905D01*
X62095095Y-56633905D01*
X62237952Y-56586286D01*
X62809381Y-56014857D01*
X62809381Y-56633905D01*
X58935857Y-54554381D02*
X59269191Y-54078190D01*
X59507286Y-54554381D02*
X59507286Y-53554381D01*
X59126333Y-53554381D01*
X59031095Y-53602000D01*
X58983476Y-53649619D01*
X58935857Y-53744857D01*
X58935857Y-53887714D01*
X58983476Y-53982952D01*
X59031095Y-54030571D01*
X59126333Y-54078190D01*
X59507286Y-54078190D01*
X58554905Y-53649619D02*
X58507286Y-53602000D01*
X58412048Y-53554381D01*
X58173952Y-53554381D01*
X58078714Y-53602000D01*
X58031095Y-53649619D01*
X57983476Y-53744857D01*
X57983476Y-53840095D01*
X58031095Y-53982952D01*
X58602524Y-54554381D01*
X57983476Y-54554381D01*
X57650143Y-53554381D02*
X57031095Y-53554381D01*
X57364429Y-53935333D01*
X57221571Y-53935333D01*
X57126333Y-53982952D01*
X57078714Y-54030571D01*
X57031095Y-54125810D01*
X57031095Y-54363905D01*
X57078714Y-54459143D01*
X57126333Y-54506762D01*
X57221571Y-54554381D01*
X57507286Y-54554381D01*
X57602524Y-54506762D01*
X57650143Y-54459143D01*
D13*
X47987857Y-67273714D02*
X48241857Y-66910857D01*
X48423285Y-67273714D02*
X48423285Y-66511714D01*
X48133000Y-66511714D01*
X48060428Y-66548000D01*
X48024143Y-66584286D01*
X47987857Y-66656857D01*
X47987857Y-66765714D01*
X48024143Y-66838286D01*
X48060428Y-66874571D01*
X48133000Y-66910857D01*
X48423285Y-66910857D01*
X47697571Y-66584286D02*
X47661285Y-66548000D01*
X47588714Y-66511714D01*
X47407285Y-66511714D01*
X47334714Y-66548000D01*
X47298428Y-66584286D01*
X47262143Y-66656857D01*
X47262143Y-66729429D01*
X47298428Y-66838286D01*
X47733857Y-67273714D01*
X47262143Y-67273714D01*
X46609000Y-66765714D02*
X46609000Y-67273714D01*
X46790429Y-66475429D02*
X46971857Y-67019714D01*
X46500143Y-67019714D01*
D11*
X32583381Y-51427143D02*
X32107190Y-51093809D01*
X32583381Y-50855714D02*
X31583381Y-50855714D01*
X31583381Y-51236667D01*
X31631000Y-51331905D01*
X31678619Y-51379524D01*
X31773857Y-51427143D01*
X31916714Y-51427143D01*
X32011952Y-51379524D01*
X32059571Y-51331905D01*
X32107190Y-51236667D01*
X32107190Y-50855714D01*
X31678619Y-51808095D02*
X31631000Y-51855714D01*
X31583381Y-51950952D01*
X31583381Y-52189048D01*
X31631000Y-52284286D01*
X31678619Y-52331905D01*
X31773857Y-52379524D01*
X31869095Y-52379524D01*
X32011952Y-52331905D01*
X32583381Y-51760476D01*
X32583381Y-52379524D01*
X31583381Y-53284286D02*
X31583381Y-52808095D01*
X32059571Y-52760476D01*
X32011952Y-52808095D01*
X31964333Y-52903333D01*
X31964333Y-53141429D01*
X32011952Y-53236667D01*
X32059571Y-53284286D01*
X32154810Y-53331905D01*
X32392905Y-53331905D01*
X32488143Y-53284286D01*
X32535762Y-53236667D01*
X32583381Y-53141429D01*
X32583381Y-52903333D01*
X32535762Y-52808095D01*
X32488143Y-52760476D01*
X39504857Y-65476381D02*
X39838191Y-65000190D01*
X40076286Y-65476381D02*
X40076286Y-64476381D01*
X39695333Y-64476381D01*
X39600095Y-64524000D01*
X39552476Y-64571619D01*
X39504857Y-64666857D01*
X39504857Y-64809714D01*
X39552476Y-64904952D01*
X39600095Y-64952571D01*
X39695333Y-65000190D01*
X40076286Y-65000190D01*
X39123905Y-64571619D02*
X39076286Y-64524000D01*
X38981048Y-64476381D01*
X38742952Y-64476381D01*
X38647714Y-64524000D01*
X38600095Y-64571619D01*
X38552476Y-64666857D01*
X38552476Y-64762095D01*
X38600095Y-64904952D01*
X39171524Y-65476381D01*
X38552476Y-65476381D01*
X37695333Y-64476381D02*
X37885810Y-64476381D01*
X37981048Y-64524000D01*
X38028667Y-64571619D01*
X38123905Y-64714476D01*
X38171524Y-64904952D01*
X38171524Y-65285905D01*
X38123905Y-65381143D01*
X38076286Y-65428762D01*
X37981048Y-65476381D01*
X37790571Y-65476381D01*
X37695333Y-65428762D01*
X37647714Y-65381143D01*
X37600095Y-65285905D01*
X37600095Y-65047810D01*
X37647714Y-64952571D01*
X37695333Y-64904952D01*
X37790571Y-64857333D01*
X37981048Y-64857333D01*
X38076286Y-64904952D01*
X38123905Y-64952571D01*
X38171524Y-65047810D01*
X50680857Y-47188381D02*
X51014191Y-46712190D01*
X51252286Y-47188381D02*
X51252286Y-46188381D01*
X50871333Y-46188381D01*
X50776095Y-46236000D01*
X50728476Y-46283619D01*
X50680857Y-46378857D01*
X50680857Y-46521714D01*
X50728476Y-46616952D01*
X50776095Y-46664571D01*
X50871333Y-46712190D01*
X51252286Y-46712190D01*
X50299905Y-46283619D02*
X50252286Y-46236000D01*
X50157048Y-46188381D01*
X49918952Y-46188381D01*
X49823714Y-46236000D01*
X49776095Y-46283619D01*
X49728476Y-46378857D01*
X49728476Y-46474095D01*
X49776095Y-46616952D01*
X50347524Y-47188381D01*
X49728476Y-47188381D01*
X49157048Y-46616952D02*
X49252286Y-46569333D01*
X49299905Y-46521714D01*
X49347524Y-46426476D01*
X49347524Y-46378857D01*
X49299905Y-46283619D01*
X49252286Y-46236000D01*
X49157048Y-46188381D01*
X48966571Y-46188381D01*
X48871333Y-46236000D01*
X48823714Y-46283619D01*
X48776095Y-46378857D01*
X48776095Y-46426476D01*
X48823714Y-46521714D01*
X48871333Y-46569333D01*
X48966571Y-46616952D01*
X49157048Y-46616952D01*
X49252286Y-46664571D01*
X49299905Y-46712190D01*
X49347524Y-46807429D01*
X49347524Y-46997905D01*
X49299905Y-47093143D01*
X49252286Y-47140762D01*
X49157048Y-47188381D01*
X48966571Y-47188381D01*
X48871333Y-47140762D01*
X48823714Y-47093143D01*
X48776095Y-46997905D01*
X48776095Y-46807429D01*
X48823714Y-46712190D01*
X48871333Y-46664571D01*
X48966571Y-46616952D01*
X34107381Y-51427143D02*
X33631190Y-51093809D01*
X34107381Y-50855714D02*
X33107381Y-50855714D01*
X33107381Y-51236667D01*
X33155000Y-51331905D01*
X33202619Y-51379524D01*
X33297857Y-51427143D01*
X33440714Y-51427143D01*
X33535952Y-51379524D01*
X33583571Y-51331905D01*
X33631190Y-51236667D01*
X33631190Y-50855714D01*
X33202619Y-51808095D02*
X33155000Y-51855714D01*
X33107381Y-51950952D01*
X33107381Y-52189048D01*
X33155000Y-52284286D01*
X33202619Y-52331905D01*
X33297857Y-52379524D01*
X33393095Y-52379524D01*
X33535952Y-52331905D01*
X34107381Y-51760476D01*
X34107381Y-52379524D01*
X34107381Y-52855714D02*
X34107381Y-53046190D01*
X34059762Y-53141429D01*
X34012143Y-53189048D01*
X33869286Y-53284286D01*
X33678810Y-53331905D01*
X33297857Y-53331905D01*
X33202619Y-53284286D01*
X33155000Y-53236667D01*
X33107381Y-53141429D01*
X33107381Y-52950952D01*
X33155000Y-52855714D01*
X33202619Y-52808095D01*
X33297857Y-52760476D01*
X33535952Y-52760476D01*
X33631190Y-52808095D01*
X33678810Y-52855714D01*
X33726429Y-52950952D01*
X33726429Y-53141429D01*
X33678810Y-53236667D01*
X33631190Y-53284286D01*
X33535952Y-53331905D01*
D13*
X57621714Y-46500143D02*
X57258857Y-46246143D01*
X57621714Y-46064715D02*
X56859714Y-46064715D01*
X56859714Y-46355000D01*
X56896000Y-46427572D01*
X56932286Y-46463857D01*
X57004857Y-46500143D01*
X57113714Y-46500143D01*
X57186286Y-46463857D01*
X57222571Y-46427572D01*
X57258857Y-46355000D01*
X57258857Y-46064715D01*
X56859714Y-46754143D02*
X56859714Y-47225857D01*
X57150000Y-46971857D01*
X57150000Y-47080715D01*
X57186286Y-47153286D01*
X57222571Y-47189572D01*
X57295143Y-47225857D01*
X57476571Y-47225857D01*
X57549143Y-47189572D01*
X57585429Y-47153286D01*
X57621714Y-47080715D01*
X57621714Y-46863000D01*
X57585429Y-46790429D01*
X57549143Y-46754143D01*
X56859714Y-47697571D02*
X56859714Y-47770143D01*
X56896000Y-47842714D01*
X56932286Y-47879000D01*
X57004857Y-47915286D01*
X57150000Y-47951571D01*
X57331429Y-47951571D01*
X57476571Y-47915286D01*
X57549143Y-47879000D01*
X57585429Y-47842714D01*
X57621714Y-47770143D01*
X57621714Y-47697571D01*
X57585429Y-47625000D01*
X57549143Y-47588714D01*
X57476571Y-47552429D01*
X57331429Y-47516143D01*
X57150000Y-47516143D01*
X57004857Y-47552429D01*
X56932286Y-47588714D01*
X56896000Y-47625000D01*
X56859714Y-47697571D01*
D11*
X43124381Y-69715143D02*
X42648190Y-69381809D01*
X43124381Y-69143714D02*
X42124381Y-69143714D01*
X42124381Y-69524667D01*
X42172000Y-69619905D01*
X42219619Y-69667524D01*
X42314857Y-69715143D01*
X42457714Y-69715143D01*
X42552952Y-69667524D01*
X42600571Y-69619905D01*
X42648190Y-69524667D01*
X42648190Y-69143714D01*
X42124381Y-70048476D02*
X42124381Y-70667524D01*
X42505333Y-70334190D01*
X42505333Y-70477048D01*
X42552952Y-70572286D01*
X42600571Y-70619905D01*
X42695810Y-70667524D01*
X42933905Y-70667524D01*
X43029143Y-70619905D01*
X43076762Y-70572286D01*
X43124381Y-70477048D01*
X43124381Y-70191333D01*
X43076762Y-70096095D01*
X43029143Y-70048476D01*
X43124381Y-71619905D02*
X43124381Y-71048476D01*
X43124381Y-71334190D02*
X42124381Y-71334190D01*
X42267238Y-71238952D01*
X42362476Y-71143714D01*
X42410095Y-71048476D01*
D13*
X55970714Y-46500143D02*
X55607857Y-46246143D01*
X55970714Y-46064715D02*
X55208714Y-46064715D01*
X55208714Y-46355000D01*
X55245000Y-46427572D01*
X55281286Y-46463857D01*
X55353857Y-46500143D01*
X55462714Y-46500143D01*
X55535286Y-46463857D01*
X55571571Y-46427572D01*
X55607857Y-46355000D01*
X55607857Y-46064715D01*
X55208714Y-46754143D02*
X55208714Y-47225857D01*
X55499000Y-46971857D01*
X55499000Y-47080715D01*
X55535286Y-47153286D01*
X55571571Y-47189572D01*
X55644143Y-47225857D01*
X55825571Y-47225857D01*
X55898143Y-47189572D01*
X55934429Y-47153286D01*
X55970714Y-47080715D01*
X55970714Y-46863000D01*
X55934429Y-46790429D01*
X55898143Y-46754143D01*
X55281286Y-47516143D02*
X55245000Y-47552429D01*
X55208714Y-47625000D01*
X55208714Y-47806429D01*
X55245000Y-47879000D01*
X55281286Y-47915286D01*
X55353857Y-47951571D01*
X55426429Y-47951571D01*
X55535286Y-47915286D01*
X55970714Y-47479857D01*
X55970714Y-47951571D01*
D11*
X41854381Y-45458143D02*
X41378190Y-45124809D01*
X41854381Y-44886714D02*
X40854381Y-44886714D01*
X40854381Y-45267667D01*
X40902000Y-45362905D01*
X40949619Y-45410524D01*
X41044857Y-45458143D01*
X41187714Y-45458143D01*
X41282952Y-45410524D01*
X41330571Y-45362905D01*
X41378190Y-45267667D01*
X41378190Y-44886714D01*
X40854381Y-45791476D02*
X40854381Y-46410524D01*
X41235333Y-46077190D01*
X41235333Y-46220048D01*
X41282952Y-46315286D01*
X41330571Y-46362905D01*
X41425810Y-46410524D01*
X41663905Y-46410524D01*
X41759143Y-46362905D01*
X41806762Y-46315286D01*
X41854381Y-46220048D01*
X41854381Y-45934333D01*
X41806762Y-45839095D01*
X41759143Y-45791476D01*
X41187714Y-47267667D02*
X41854381Y-47267667D01*
X40806762Y-47029571D02*
X41521048Y-46791476D01*
X41521048Y-47410524D01*
X38734905Y-65873381D02*
X38734905Y-66682905D01*
X38687286Y-66778143D01*
X38639667Y-66825762D01*
X38544429Y-66873381D01*
X38353952Y-66873381D01*
X38258714Y-66825762D01*
X38211095Y-66778143D01*
X38163476Y-66682905D01*
X38163476Y-65873381D01*
X37782524Y-65873381D02*
X37115857Y-65873381D01*
X37544429Y-66873381D01*
X56641905Y-55459381D02*
X56641905Y-56268905D01*
X56594286Y-56364143D01*
X56546667Y-56411762D01*
X56451429Y-56459381D01*
X56260952Y-56459381D01*
X56165714Y-56411762D01*
X56118095Y-56364143D01*
X56070476Y-56268905D01*
X56070476Y-55459381D01*
X55546667Y-56459381D02*
X55356191Y-56459381D01*
X55260952Y-56411762D01*
X55213333Y-56364143D01*
X55118095Y-56221286D01*
X55070476Y-56030810D01*
X55070476Y-55649857D01*
X55118095Y-55554619D01*
X55165714Y-55507000D01*
X55260952Y-55459381D01*
X55451429Y-55459381D01*
X55546667Y-55507000D01*
X55594286Y-55554619D01*
X55641905Y-55649857D01*
X55641905Y-55887952D01*
X55594286Y-55983190D01*
X55546667Y-56030810D01*
X55451429Y-56078429D01*
X55260952Y-56078429D01*
X55165714Y-56030810D01*
X55118095Y-55983190D01*
X55070476Y-55887952D01*
D16*
X45065190Y-62753953D02*
X45469952Y-62753953D01*
X45517571Y-62777762D01*
X45541381Y-62801572D01*
X45565190Y-62849191D01*
X45565190Y-62944429D01*
X45541381Y-62992048D01*
X45517571Y-63015857D01*
X45469952Y-63039667D01*
X45065190Y-63039667D01*
X45565190Y-63539667D02*
X45565190Y-63253953D01*
X45565190Y-63396810D02*
X45065190Y-63396810D01*
X45136619Y-63349191D01*
X45184238Y-63301572D01*
X45208048Y-63253953D01*
X45065190Y-63849191D02*
X45065190Y-63896810D01*
X45089000Y-63944429D01*
X45112810Y-63968238D01*
X45160429Y-63992048D01*
X45255667Y-64015857D01*
X45374714Y-64015857D01*
X45469952Y-63992048D01*
X45517571Y-63968238D01*
X45541381Y-63944429D01*
X45565190Y-63896810D01*
X45565190Y-63849191D01*
X45541381Y-63801572D01*
X45517571Y-63777762D01*
X45469952Y-63753953D01*
X45374714Y-63730143D01*
X45255667Y-63730143D01*
X45160429Y-63753953D01*
X45112810Y-63777762D01*
X45089000Y-63801572D01*
X45065190Y-63849191D01*
D11*
X50387095Y-47712381D02*
X50387095Y-48521905D01*
X50339476Y-48617143D01*
X50291857Y-48664762D01*
X50196619Y-48712381D01*
X50006142Y-48712381D01*
X49910904Y-48664762D01*
X49863285Y-48617143D01*
X49815666Y-48521905D01*
X49815666Y-47712381D01*
X48815666Y-48712381D02*
X49387095Y-48712381D01*
X49101381Y-48712381D02*
X49101381Y-47712381D01*
X49196619Y-47855238D01*
X49291857Y-47950476D01*
X49387095Y-47998095D01*
X48434714Y-47807619D02*
X48387095Y-47760000D01*
X48291857Y-47712381D01*
X48053761Y-47712381D01*
X47958523Y-47760000D01*
X47910904Y-47807619D01*
X47863285Y-47902857D01*
X47863285Y-47998095D01*
X47910904Y-48140952D01*
X48482333Y-48712381D01*
X47863285Y-48712381D01*
X60031381Y-84963095D02*
X60840905Y-84963095D01*
X60936143Y-85010714D01*
X60983762Y-85058333D01*
X61031381Y-85153571D01*
X61031381Y-85344048D01*
X60983762Y-85439286D01*
X60936143Y-85486905D01*
X60840905Y-85534524D01*
X60031381Y-85534524D01*
X60031381Y-86439286D02*
X60031381Y-86248809D01*
X60079000Y-86153571D01*
X60126619Y-86105952D01*
X60269476Y-86010714D01*
X60459952Y-85963095D01*
X60840905Y-85963095D01*
X60936143Y-86010714D01*
X60983762Y-86058333D01*
X61031381Y-86153571D01*
X61031381Y-86344048D01*
X60983762Y-86439286D01*
X60936143Y-86486905D01*
X60840905Y-86534524D01*
X60602810Y-86534524D01*
X60507571Y-86486905D01*
X60459952Y-86439286D01*
X60412333Y-86344048D01*
X60412333Y-86153571D01*
X60459952Y-86058333D01*
X60507571Y-86010714D01*
X60602810Y-85963095D01*
X51617571Y-64825667D02*
X51617571Y-64492333D01*
X52141381Y-64492333D02*
X51141381Y-64492333D01*
X51141381Y-64968524D01*
X51617571Y-65682810D02*
X51665190Y-65825667D01*
X51712810Y-65873286D01*
X51808048Y-65920905D01*
X51950905Y-65920905D01*
X52046143Y-65873286D01*
X52093762Y-65825667D01*
X52141381Y-65730429D01*
X52141381Y-65349476D01*
X51141381Y-65349476D01*
X51141381Y-65682810D01*
X51189000Y-65778048D01*
X51236619Y-65825667D01*
X51331857Y-65873286D01*
X51427095Y-65873286D01*
X51522333Y-65825667D01*
X51569952Y-65778048D01*
X51617571Y-65682810D01*
X51617571Y-65349476D01*
X52141381Y-66873286D02*
X52141381Y-66301857D01*
X52141381Y-66587571D02*
X51141381Y-66587571D01*
X51284238Y-66492333D01*
X51379476Y-66397095D01*
X51427095Y-66301857D01*
X39171571Y-46664667D02*
X39171571Y-46331333D01*
X39695381Y-46331333D02*
X38695381Y-46331333D01*
X38695381Y-46807524D01*
X39171571Y-47521810D02*
X39219190Y-47664667D01*
X39266810Y-47712286D01*
X39362048Y-47759905D01*
X39504905Y-47759905D01*
X39600143Y-47712286D01*
X39647762Y-47664667D01*
X39695381Y-47569429D01*
X39695381Y-47188476D01*
X38695381Y-47188476D01*
X38695381Y-47521810D01*
X38743000Y-47617048D01*
X38790619Y-47664667D01*
X38885857Y-47712286D01*
X38981095Y-47712286D01*
X39076333Y-47664667D01*
X39123952Y-47617048D01*
X39171571Y-47521810D01*
X39171571Y-47188476D01*
X38790619Y-48140857D02*
X38743000Y-48188476D01*
X38695381Y-48283714D01*
X38695381Y-48521810D01*
X38743000Y-48617048D01*
X38790619Y-48664667D01*
X38885857Y-48712286D01*
X38981095Y-48712286D01*
X39123952Y-48664667D01*
X39695381Y-48093238D01*
X39695381Y-48712286D01*
M02*
