G04 #@! TF.FileFunction,Soldermask,Top*
%FSLAX46Y46*%
G04 Gerber Fmt 4.6, Leading zero omitted, Abs format (unit mm)*
G04 Created by KiCad (PCBNEW (2015-02-03 BZR 5404)-product) date 9/2/2015 4:33:54 PM*
%MOMM*%
G01*
G04 APERTURE LIST*
%ADD10C,0.100000*%
%ADD11R,0.902400X0.952400*%
%ADD12R,1.402400X1.152400*%
%ADD13R,0.952400X0.902400*%
%ADD14R,1.152400X1.402400*%
%ADD15R,1.152400X1.752400*%
%ADD16R,1.752400X1.152400*%
%ADD17R,1.202000X0.802000*%
%ADD18R,0.802000X1.202000*%
%ADD19R,0.852400X1.452400*%
%ADD20O,2.352400X2.352400*%
%ADD21R,1.879600X1.879600*%
%ADD22O,1.879600X1.879600*%
%ADD23C,4.152400*%
%ADD24R,1.052400X0.652400*%
%ADD25R,0.652400X1.052400*%
%ADD26R,1.452400X0.852400*%
%ADD27R,0.552400X0.752400*%
%ADD28R,1.652400X1.152400*%
%ADD29R,0.452400X1.752400*%
%ADD30R,0.533400X1.422400*%
%ADD31R,1.252400X0.752400*%
%ADD32R,0.914400X0.660400*%
%ADD33R,1.879600X2.184400*%
%ADD34O,1.879600X2.184400*%
%ADD35R,2.184400X2.184400*%
%ADD36O,2.184400X2.184400*%
G04 APERTURE END LIST*
D10*
D11*
X37592000Y-82879500D03*
X37592000Y-84379500D03*
X36068000Y-82879500D03*
X36068000Y-84379500D03*
X39116000Y-95555500D03*
X39116000Y-94055500D03*
D12*
X40767000Y-77962000D03*
X40767000Y-75962000D03*
D11*
X36068000Y-93801500D03*
X36068000Y-95301500D03*
D13*
X39993000Y-97472500D03*
X38493000Y-97472500D03*
D11*
X38798500Y-77394500D03*
X38798500Y-75894500D03*
X37782500Y-80696500D03*
X37782500Y-79196500D03*
X40640000Y-94055500D03*
X40640000Y-95555500D03*
X35814000Y-75894500D03*
X35814000Y-77394500D03*
D13*
X45327000Y-93980000D03*
X43827000Y-93980000D03*
X47359000Y-92265500D03*
X45859000Y-92265500D03*
D14*
X49069500Y-80899000D03*
X47069500Y-80899000D03*
D11*
X45212000Y-78879000D03*
X45212000Y-80379000D03*
X44958000Y-89459500D03*
X44958000Y-87959500D03*
D12*
X43180000Y-90090500D03*
X43180000Y-88090500D03*
D11*
X40640000Y-82879500D03*
X40640000Y-84379500D03*
X43688000Y-78879000D03*
X43688000Y-80379000D03*
D13*
X35802000Y-59944000D03*
X34302000Y-59944000D03*
D11*
X39116000Y-82879500D03*
X39116000Y-84379500D03*
X37592000Y-95301500D03*
X37592000Y-93801500D03*
D12*
X46990000Y-79105000D03*
X46990000Y-77105000D03*
X49085500Y-79105000D03*
X49085500Y-77105000D03*
D15*
X49871500Y-71183500D03*
X52871500Y-71183500D03*
D14*
X49419000Y-88201500D03*
X51419000Y-88201500D03*
D12*
X53149500Y-86122000D03*
X53149500Y-88122000D03*
D16*
X54800500Y-80811500D03*
X54800500Y-77811500D03*
D17*
X33121600Y-87141200D03*
D10*
G36*
X32520600Y-87540200D02*
X33722600Y-87540200D01*
X33122600Y-88342200D01*
X33120600Y-88342200D01*
X32520600Y-87540200D01*
X32520600Y-87540200D01*
G37*
G36*
X33120600Y-88500200D02*
X33722600Y-87700200D01*
X33722600Y-89302200D01*
X33120600Y-88502200D01*
X33120600Y-88500200D01*
X33120600Y-88500200D01*
G37*
G36*
X32520600Y-87700200D02*
X33122600Y-88500200D01*
X33122600Y-88502200D01*
X32520600Y-89302200D01*
X32520600Y-87700200D01*
X32520600Y-87700200D01*
G37*
G36*
X33120600Y-88500200D02*
X33122600Y-88500200D01*
X33722600Y-89302200D01*
X32520600Y-89302200D01*
X33120600Y-88500200D01*
X33120600Y-88500200D01*
G37*
D17*
X32105600Y-79432000D03*
D10*
G36*
X32706600Y-79033000D02*
X31504600Y-79033000D01*
X32104600Y-78231000D01*
X32106600Y-78231000D01*
X32706600Y-79033000D01*
X32706600Y-79033000D01*
G37*
G36*
X32106600Y-78073000D02*
X31504600Y-78873000D01*
X31504600Y-77271000D01*
X32106600Y-78071000D01*
X32106600Y-78073000D01*
X32106600Y-78073000D01*
G37*
G36*
X32706600Y-78873000D02*
X32104600Y-78073000D01*
X32104600Y-78071000D01*
X32706600Y-77271000D01*
X32706600Y-78873000D01*
X32706600Y-78873000D01*
G37*
G36*
X32106600Y-78073000D02*
X32104600Y-78073000D01*
X31504600Y-77271000D01*
X32706600Y-77271000D01*
X32106600Y-78073000D01*
X32106600Y-78073000D01*
G37*
D18*
X69920000Y-63500000D03*
D10*
G36*
X70319000Y-64101000D02*
X70319000Y-62899000D01*
X71121000Y-63499000D01*
X71121000Y-63501000D01*
X70319000Y-64101000D01*
X70319000Y-64101000D01*
G37*
G36*
X71279000Y-63501000D02*
X70479000Y-62899000D01*
X72081000Y-62899000D01*
X71281000Y-63501000D01*
X71279000Y-63501000D01*
X71279000Y-63501000D01*
G37*
G36*
X70479000Y-64101000D02*
X71279000Y-63499000D01*
X71281000Y-63499000D01*
X72081000Y-64101000D01*
X70479000Y-64101000D01*
X70479000Y-64101000D01*
G37*
G36*
X71279000Y-63501000D02*
X71279000Y-63499000D01*
X72081000Y-62899000D01*
X72081000Y-64101000D01*
X71279000Y-63501000D01*
X71279000Y-63501000D01*
G37*
D18*
X33712000Y-63246000D03*
D10*
G36*
X33313000Y-62645000D02*
X33313000Y-63847000D01*
X32511000Y-63247000D01*
X32511000Y-63245000D01*
X33313000Y-62645000D01*
X33313000Y-62645000D01*
G37*
G36*
X32353000Y-63245000D02*
X33153000Y-63847000D01*
X31551000Y-63847000D01*
X32351000Y-63245000D01*
X32353000Y-63245000D01*
X32353000Y-63245000D01*
G37*
G36*
X33153000Y-62645000D02*
X32353000Y-63247000D01*
X32351000Y-63247000D01*
X31551000Y-62645000D01*
X33153000Y-62645000D01*
X33153000Y-62645000D01*
G37*
G36*
X32353000Y-63245000D02*
X32353000Y-63247000D01*
X31551000Y-63847000D01*
X31551000Y-62645000D01*
X32353000Y-63245000D01*
X32353000Y-63245000D01*
G37*
D18*
X33737400Y-64897000D03*
D10*
G36*
X33338400Y-64296000D02*
X33338400Y-65498000D01*
X32536400Y-64898000D01*
X32536400Y-64896000D01*
X33338400Y-64296000D01*
X33338400Y-64296000D01*
G37*
G36*
X32378400Y-64896000D02*
X33178400Y-65498000D01*
X31576400Y-65498000D01*
X32376400Y-64896000D01*
X32378400Y-64896000D01*
X32378400Y-64896000D01*
G37*
G36*
X33178400Y-64296000D02*
X32378400Y-64898000D01*
X32376400Y-64898000D01*
X31576400Y-64296000D01*
X33178400Y-64296000D01*
X33178400Y-64296000D01*
G37*
G36*
X32378400Y-64896000D02*
X32378400Y-64898000D01*
X31576400Y-65498000D01*
X31576400Y-64296000D01*
X32378400Y-64896000D01*
X32378400Y-64896000D01*
G37*
D19*
X47119500Y-75184000D03*
X49019500Y-75184000D03*
X49469000Y-86042500D03*
X51369000Y-86042500D03*
D20*
X58605000Y-103505000D03*
X55105000Y-103505000D03*
X51605000Y-103505000D03*
X48105000Y-103505000D03*
X44605000Y-103505000D03*
X41105000Y-103505000D03*
X37605000Y-103505000D03*
X34105000Y-103505000D03*
D21*
X75565000Y-45085000D03*
D22*
X78105000Y-45085000D03*
X75565000Y-47625000D03*
X78105000Y-47625000D03*
X75565000Y-50165000D03*
X78105000Y-50165000D03*
X75565000Y-52705000D03*
X78105000Y-52705000D03*
X75565000Y-55245000D03*
X78105000Y-55245000D03*
X75565000Y-57785000D03*
X78105000Y-57785000D03*
X75565000Y-60325000D03*
X78105000Y-60325000D03*
X75565000Y-62865000D03*
X78105000Y-62865000D03*
X75565000Y-65405000D03*
X78105000Y-65405000D03*
X75565000Y-67945000D03*
X78105000Y-67945000D03*
X75565000Y-70485000D03*
X78105000Y-70485000D03*
X75565000Y-73025000D03*
X78105000Y-73025000D03*
X75565000Y-75565000D03*
X78105000Y-75565000D03*
X75565000Y-78105000D03*
X78105000Y-78105000D03*
X75565000Y-80645000D03*
X78105000Y-80645000D03*
X75565000Y-83185000D03*
X78105000Y-83185000D03*
X75565000Y-85725000D03*
X78105000Y-85725000D03*
X75565000Y-88265000D03*
X78105000Y-88265000D03*
X75565000Y-90805000D03*
X78105000Y-90805000D03*
X75565000Y-93345000D03*
X78105000Y-93345000D03*
X75565000Y-95885000D03*
X78105000Y-95885000D03*
X75565000Y-98425000D03*
X78105000Y-98425000D03*
X75565000Y-100965000D03*
X78105000Y-100965000D03*
D21*
X27305000Y-45085000D03*
D22*
X29845000Y-45085000D03*
X27305000Y-47625000D03*
X29845000Y-47625000D03*
X27305000Y-50165000D03*
X29845000Y-50165000D03*
X27305000Y-52705000D03*
X29845000Y-52705000D03*
X27305000Y-55245000D03*
X29845000Y-55245000D03*
X27305000Y-57785000D03*
X29845000Y-57785000D03*
X27305000Y-60325000D03*
X29845000Y-60325000D03*
X27305000Y-62865000D03*
X29845000Y-62865000D03*
X27305000Y-65405000D03*
X29845000Y-65405000D03*
X27305000Y-67945000D03*
X29845000Y-67945000D03*
X27305000Y-70485000D03*
X29845000Y-70485000D03*
X27305000Y-73025000D03*
X29845000Y-73025000D03*
X27305000Y-75565000D03*
X29845000Y-75565000D03*
X27305000Y-78105000D03*
X29845000Y-78105000D03*
X27305000Y-80645000D03*
X29845000Y-80645000D03*
X27305000Y-83185000D03*
X29845000Y-83185000D03*
X27305000Y-85725000D03*
X29845000Y-85725000D03*
X27305000Y-88265000D03*
X29845000Y-88265000D03*
X27305000Y-90805000D03*
X29845000Y-90805000D03*
X27305000Y-93345000D03*
X29845000Y-93345000D03*
X27305000Y-95885000D03*
X29845000Y-95885000D03*
X27305000Y-98425000D03*
X29845000Y-98425000D03*
X27305000Y-100965000D03*
X29845000Y-100965000D03*
D23*
X71120000Y-53594000D03*
X66040000Y-53594000D03*
X68580000Y-45974000D03*
D21*
X33528000Y-42672000D03*
D22*
X33528000Y-40132000D03*
X36068000Y-42672000D03*
X36068000Y-40132000D03*
D23*
X66040000Y-101600000D03*
X71120000Y-101600000D03*
X68580000Y-109220000D03*
D24*
X39433500Y-80887000D03*
X39433500Y-79387000D03*
X36703000Y-98984500D03*
X36703000Y-97484500D03*
X33655000Y-79426500D03*
X33655000Y-77926500D03*
X39878000Y-100381500D03*
X39878000Y-98881500D03*
X42545000Y-95428500D03*
X42545000Y-93928500D03*
D25*
X44565000Y-92265500D03*
X43065000Y-92265500D03*
X33770000Y-83515200D03*
X32270000Y-83515200D03*
D24*
X34417000Y-93865000D03*
X34417000Y-95365000D03*
X32829500Y-59765500D03*
X32829500Y-61265500D03*
D25*
X33857500Y-54800500D03*
X35357500Y-54800500D03*
D26*
X54673500Y-74229000D03*
X54673500Y-72329000D03*
D24*
X38862000Y-42152000D03*
X38862000Y-40652000D03*
D19*
X55755500Y-83502500D03*
X57655500Y-83502500D03*
D24*
X50355500Y-84252500D03*
X50355500Y-82752500D03*
D25*
X51701000Y-80772000D03*
X53201000Y-80772000D03*
D27*
X36464000Y-78742500D03*
X35814000Y-78742500D03*
X35164000Y-78742500D03*
X35164000Y-80642500D03*
X36464000Y-80642500D03*
D28*
X39809500Y-71471000D03*
X36009500Y-71471000D03*
X36009500Y-74071000D03*
X39809500Y-74071000D03*
D29*
X41675000Y-86290500D03*
X41025000Y-86290500D03*
X40375000Y-86290500D03*
X39725000Y-86290500D03*
X39075000Y-86290500D03*
X38425000Y-86290500D03*
X37775000Y-86290500D03*
X37125000Y-86290500D03*
X36475000Y-86290500D03*
X35825000Y-86290500D03*
X35175000Y-86290500D03*
X34525000Y-86290500D03*
X34525000Y-91890500D03*
X35175000Y-91890500D03*
X35825000Y-91890500D03*
X36475000Y-91890500D03*
X37125000Y-91890500D03*
X37775000Y-91890500D03*
X38425000Y-91890500D03*
X39075000Y-91890500D03*
X39725000Y-91890500D03*
X40375000Y-91890500D03*
X41025000Y-91890500D03*
X41675000Y-91890500D03*
D30*
X45806360Y-81978500D03*
X45156120Y-81978500D03*
X44505880Y-81978500D03*
X43855640Y-81978500D03*
X43855640Y-86296500D03*
X44505880Y-86296500D03*
X45156120Y-86296500D03*
X45806360Y-86296500D03*
D31*
X35640000Y-58354000D03*
X35640000Y-57404000D03*
X35640000Y-56454000D03*
X32940000Y-56454000D03*
X32940000Y-57404000D03*
X32940000Y-58354000D03*
D32*
X52959000Y-75184000D03*
X52959000Y-73279000D03*
X50419000Y-75184000D03*
X52959000Y-74231500D03*
X50419000Y-73279000D03*
X54483000Y-84455000D03*
X54483000Y-82550000D03*
X51943000Y-84455000D03*
X54483000Y-83502500D03*
X51943000Y-82550000D03*
D33*
X66649600Y-93472000D03*
D34*
X64109600Y-93472000D03*
X61569600Y-93472000D03*
D35*
X61874400Y-71018400D03*
D36*
X61874400Y-68478400D03*
M02*
