M48
;DRILL file {kicad (2015-02-03 BZR 5404)-product} date 9/2/2015 4:33:58 PM
;FORMAT={-:-/ absolute / inch / decimal}
FMAT,2
INCH,TZ
T1C0.013
T2C0.015
T3C0.016
T4C0.025
T5C0.040
T6C0.051
T7C0.072
%
G90
G05
M72
T1
X1.338Y-2.322
X1.358Y-2.246
X1.36Y-2.212
X1.42Y-3.286
X1.436Y-3.666
X1.436Y-3.692
X1.45Y-3.262
X1.46Y-3.5525
X1.46Y-3.5775
X1.48Y-3.286
X1.496Y-3.666
X1.496Y-3.692
X1.5Y-3.565
X1.51Y-3.262
X1.51Y-3.288
X1.512Y-3.436
X1.52Y-3.344
X1.524Y-3.542
X1.54Y-3.792
X1.548Y-3.55
X1.552Y-3.344
X1.562Y-3.286
X1.568Y-3.566
X1.57Y-3.262
X1.571Y-2.107
X1.571Y-2.557
X1.572Y-3.74
X1.586Y-3.79
X1.6Y-3.286
X1.616Y-3.438
X1.628Y-3.262
X1.638Y-3.342
X1.66Y-3.3975
X1.664Y-2.356
X1.692Y-3.164
X1.708Y-3.244
X1.724Y-3.264
X1.744Y-3.164
X1.754Y-2.36
T2
X1.3625Y-3.1
X1.37Y-2.1575
X1.3825Y-3.1325
X1.4075Y-2.85
X1.419Y-3.1915
X1.4375Y-2.2925
X1.4375Y-2.85
X1.445Y-2.3225
X1.46Y-2.7575
X1.4625Y-3.14
X1.504Y-2.84
X1.51Y-3.095
X1.66Y-3.5475
X1.678Y-2.226
X1.684Y-2.012
X1.7Y-3.5125
X1.708Y-2.166
X1.71Y-2.226
X1.71Y-2.268
X1.728Y-1.978
X1.74Y-3.5425
X1.742Y-2.226
X1.771Y-2.011
X1.8Y-3.5225
X1.91Y-3.466
X1.918Y-3.386
X1.948Y-3.43
X1.975Y-2.08
X1.978Y-3.386
X1.98Y-3.474
X1.99Y-1.98
X2.01Y-2.0125
X2.04Y-2.0625
X2.05Y-1.98
X2.06Y-1.9
X2.06Y-1.9325
X2.143Y-2.096
X2.15Y-2.282
X2.152Y-2.222
X2.153Y-2.065
X2.165Y-2.118
X2.166Y-2.254
X2.175Y-2.087
X2.186Y-2.196
X2.197Y-2.109
X2.307Y-2.443
X2.307Y-2.474
X2.3145Y-2.508
X2.3365Y-2.423
X2.3365Y-2.4545
X2.337Y-2.485
T3
X1.6696Y-2.4368
X1.6696Y-2.4682
X1.6932Y-2.4368
X1.6932Y-2.4682
X1.7168Y-2.4368
X1.7168Y-2.4682
X1.7404Y-2.4368
X1.7404Y-2.4682
T4
X1.3Y-2.625
X1.314Y-3.512
X1.32Y-3.755
X1.335Y-2.625
X1.372Y-2.489
X1.39Y-3.755
X1.41Y-2.3875
X1.41Y-2.4225
X1.44Y-2.405
X1.45Y-3.735
X1.45Y-3.77
X1.566Y-2.684
X1.5675Y-3.0475
X1.64Y-2.49
X1.712Y-2.656
X1.75Y-3.105
X1.78Y-2.598
X1.798Y-2.518
X1.81Y-3.1125
X1.8175Y-3.7
X1.838Y-2.566
X1.8625Y-3.665
X1.8925Y-3.115
X1.925Y-2.8025
X1.963Y-2.765
X1.9675Y-3.13
X1.9675Y-3.165
X2.Y-2.8025
X2.0275Y-2.87
X2.035Y-2.9475
X2.0525Y-3.4375
X2.0925Y-3.435
X2.095Y-3.145
X2.095Y-3.25
X2.1075Y-3.0625
X2.1125Y-3.325
X2.145Y-3.36
X2.1575Y-3.1
X2.17Y-2.415
X2.175Y-3.34
X2.205Y-2.4625
X2.2375Y-2.415
X2.422Y-3.48
X2.4495Y-3.525
X2.487Y-3.1675
X2.488Y-2.892
X2.4995Y-3.2275
X2.4995Y-3.3125
X2.536Y-2.892
X2.647Y-3.345
X2.728Y-2.518
T5
X1.075Y-1.775
X1.075Y-1.875
X1.075Y-1.975
X1.075Y-2.075
X1.075Y-2.175
X1.075Y-2.275
X1.075Y-2.375
X1.075Y-2.475
X1.075Y-2.575
X1.075Y-2.675
X1.075Y-2.775
X1.075Y-2.875
X1.075Y-2.975
X1.075Y-3.075
X1.075Y-3.175
X1.075Y-3.275
X1.075Y-3.375
X1.075Y-3.475
X1.075Y-3.575
X1.075Y-3.675
X1.075Y-3.775
X1.075Y-3.875
X1.075Y-3.975
X1.175Y-1.775
X1.175Y-1.875
X1.175Y-1.975
X1.175Y-2.075
X1.175Y-2.175
X1.175Y-2.275
X1.175Y-2.375
X1.175Y-2.475
X1.175Y-2.575
X1.175Y-2.675
X1.175Y-2.775
X1.175Y-2.875
X1.175Y-2.975
X1.175Y-3.075
X1.175Y-3.175
X1.175Y-3.275
X1.175Y-3.375
X1.175Y-3.475
X1.175Y-3.575
X1.175Y-3.675
X1.175Y-3.775
X1.175Y-3.875
X1.175Y-3.975
X1.32Y-1.58
X1.32Y-1.68
X1.42Y-1.58
X1.42Y-1.68
X2.424Y-3.68
X2.436Y-2.696
X2.436Y-2.796
X2.524Y-3.68
X2.624Y-3.68
X2.975Y-1.775
X2.975Y-1.875
X2.975Y-1.975
X2.975Y-2.075
X2.975Y-2.175
X2.975Y-2.275
X2.975Y-2.375
X2.975Y-2.475
X2.975Y-2.575
X2.975Y-2.675
X2.975Y-2.775
X2.975Y-2.875
X2.975Y-2.975
X2.975Y-3.075
X2.975Y-3.175
X2.975Y-3.275
X2.975Y-3.375
X2.975Y-3.475
X2.975Y-3.575
X2.975Y-3.675
X2.975Y-3.775
X2.975Y-3.875
X2.975Y-3.975
X3.075Y-1.775
X3.075Y-1.875
X3.075Y-1.975
X3.075Y-2.075
X3.075Y-2.175
X3.075Y-2.275
X3.075Y-2.375
X3.075Y-2.475
X3.075Y-2.575
X3.075Y-2.675
X3.075Y-2.775
X3.075Y-2.875
X3.075Y-2.975
X3.075Y-3.075
X3.075Y-3.175
X3.075Y-3.275
X3.075Y-3.375
X3.075Y-3.475
X3.075Y-3.575
X3.075Y-3.675
X3.075Y-3.775
X3.075Y-3.875
X3.075Y-3.975
T6
X1.3427Y-4.075
X1.4805Y-4.075
X1.6183Y-4.075
X1.7561Y-4.075
X1.8939Y-4.075
X2.0317Y-4.075
X2.1695Y-4.075
X2.3073Y-4.075
T7
X2.6Y-2.11
X2.6Y-4.
X2.7Y-1.81
X2.7Y-4.3
X2.8Y-2.11
X2.8Y-4.
T0
M30
